<svg width="654" height="125" viewBox="0 0 654 125" fill="none" xmlns="http://www.w3.org/2000/svg">
<path d="M25.584 33V34H26.3316L26.5431 33.283L25.584 33ZM22.032 33L21.0671 33.2627L21.2679 34H22.032V33ZM18.224 19.016L19.1889 18.7533L19.1864 18.7442L19.1837 18.7351L18.224 19.016ZM17.136 14.312L18.1151 14.1088L16.161 14.0896L17.136 14.312ZM16.432 17.352L17.4051 17.5825L17.4051 17.5825L16.432 17.352ZM12.176 33V34H12.9382L13.1402 33.2651L12.176 33ZM8.624 33L7.66488 33.283L7.87644 34H8.624V33ZM2.128 10.984V9.984H0.79032L1.16888 11.267L2.128 10.984ZM5.232 10.984L6.19402 10.711L5.98773 9.984H5.232V10.984ZM9.2 24.968L10.1658 24.7089L10.164 24.7019L10.162 24.695L9.2 24.968ZM10.48 30.376L9.50074 30.5786L11.4562 30.5929L10.48 30.376ZM11.344 26.632L10.3738 26.3894L10.3712 26.4004L11.344 26.632ZM15.696 10.984V9.984H14.9393L14.7336 10.7123L15.696 10.984ZM18.544 10.984L19.5069 10.714L19.3022 9.984H18.544V10.984ZM22.384 24.68L23.3525 24.431L23.3498 24.4205L23.3469 24.41L22.384 24.68ZM23.76 30.376L22.7832 30.5901L24.7334 30.605L23.76 30.376ZM23.888 29.832L24.8614 30.061L24.8621 30.0581L23.888 29.832ZM24.56 26.92L23.5899 26.6775L23.5874 26.6873L23.5851 26.6972L24.56 26.92ZM28.976 10.984V9.984H28.217L28.0128 10.7151L28.976 10.984ZM32.08 10.984L33.0391 11.267L33.4177 9.984H32.08V10.984ZM25.584 32H22.032V34H25.584V32ZM22.9969 32.7373L19.1889 18.7533L17.2591 19.2787L21.0671 33.2627L22.9969 32.7373ZM19.1837 18.7351C18.9403 17.9035 18.5848 16.3716 18.1151 14.1088L16.1569 14.5152C16.6259 16.775 16.9957 18.3792 17.2643 19.2969L19.1837 18.7351ZM16.161 14.0896C15.884 15.3041 15.6501 16.3145 15.4589 17.1215L17.4051 17.5825C17.5979 16.7681 17.8333 15.7519 18.111 14.5344L16.161 14.0896ZM15.4589 17.1215C15.2724 17.9093 13.8616 23.0974 11.2118 32.7349L13.1402 33.2651C15.7811 23.6599 17.2077 18.4161 17.4051 17.5825L15.4589 17.1215ZM12.176 32H8.624V34H12.176V32ZM9.58312 32.717L3.08712 10.701L1.16888 11.267L7.66488 33.283L9.58312 32.717ZM2.128 11.984H5.232V9.984H2.128V11.984ZM4.26998 11.257L8.23798 25.241L10.162 24.695L6.19402 10.711L4.26998 11.257ZM8.23416 25.2271C8.69825 26.9569 9.12048 28.7407 9.50074 30.5786L11.4593 30.1734C11.0715 28.2993 10.6404 26.4778 10.1658 24.7089L8.23416 25.2271ZM11.4562 30.5929C11.7109 29.4466 11.9978 28.2035 12.3168 26.8636L10.3712 26.4004C10.0502 27.7485 9.76107 29.0014 9.50381 30.1591L11.4562 30.5929ZM12.3141 26.8745C12.6508 25.5281 14.0956 20.3324 16.6584 11.2557L14.7336 10.7123C12.1764 19.769 10.7199 25.0053 10.3739 26.3895L12.3141 26.8745ZM15.696 11.984H18.544V9.984H15.696V11.984ZM17.5811 11.254L21.4211 24.95L23.3469 24.41L19.5069 10.714L17.5811 11.254ZM21.4155 24.929C21.9897 27.1621 22.4453 29.0484 22.7832 30.5901L24.7368 30.1619C24.3921 28.589 23.9303 26.6779 23.3525 24.431L21.4155 24.929ZM24.7334 30.605L24.8614 30.061L22.9146 29.603L22.7866 30.147L24.7334 30.605ZM24.8621 30.0581C25.1396 28.8629 25.3638 27.891 25.5349 27.1428L23.5851 26.6972C23.4148 27.4423 23.1911 28.4117 22.9139 29.6059L24.8621 30.0581ZM25.5301 27.1625C25.7178 26.412 27.1836 21.1216 29.9392 11.2529L28.0128 10.7151C25.2644 20.5584 23.7862 25.892 23.5899 26.6775L25.5301 27.1625ZM28.976 11.984H32.08V9.984H28.976V11.984ZM31.1209 10.701L24.6249 32.717L26.5431 33.283L33.0391 11.267L31.1209 10.701ZM34.8115 33H33.8115V34H34.8115V33ZM34.8115 10.984V9.984H33.8115V10.984H34.8115ZM51.5155 10.984H52.5155V9.984H51.5155V10.984ZM51.5155 13.416V14.416H52.5155V13.416H51.5155ZM37.7875 13.416V12.416H36.7875V13.416H37.7875ZM37.7875 20.488H36.7875V21.488H37.7875V20.488ZM50.5875 20.488H51.5875V19.488H50.5875V20.488ZM50.5875 22.888V23.888H51.5875V22.888H50.5875ZM37.7875 22.888V21.888H36.7875V22.888H37.7875ZM37.7875 30.568H36.7875V31.568H37.7875V30.568ZM52.1555 30.568H53.1555V29.568H52.1555V30.568ZM52.1555 33V34H53.1555V33H52.1555ZM35.8115 33V10.984H33.8115V33H35.8115ZM34.8115 11.984H51.5155V9.984H34.8115V11.984ZM50.5155 10.984V13.416H52.5155V10.984H50.5155ZM51.5155 12.416H37.7875V14.416H51.5155V12.416ZM36.7875 13.416V20.488H38.7875V13.416H36.7875ZM37.7875 21.488H50.5875V19.488H37.7875V21.488ZM49.5875 20.488V22.888H51.5875V20.488H49.5875ZM50.5875 21.888H37.7875V23.888H50.5875V21.888ZM36.7875 22.888V30.568H38.7875V22.888H36.7875ZM37.7875 31.568H52.1555V29.568H37.7875V31.568ZM51.1555 30.568V33H53.1555V30.568H51.1555ZM52.1555 32H34.8115V34H52.1555V32ZM71.004 31.368L71.6097 32.1637L71.6097 32.1637L71.004 31.368ZM56.124 33H55.124V34H56.124V33ZM56.124 10.984V9.984H55.124V10.984H56.124ZM70.78 19.624L71.5498 20.2624L71.5572 20.2532L70.78 19.624ZM67.676 21.384L67.4591 20.4078L67.5549 22.3766L67.676 21.384ZM71.708 23.144L70.9929 23.8432L71.0009 23.8511L71.708 23.144ZM67.644 14.152L68.178 13.3065L68.178 13.3065L67.644 14.152ZM59.1 13.384V12.384H58.1V13.384H59.1ZM59.1 20.328H58.1V21.328H59.1V20.328ZM67.676 19.432L67.0725 18.6345L67.0621 18.6426L67.676 19.432ZM59.1 22.664V21.664H58.1V22.664H59.1ZM59.1 30.6H58.1V31.6H59.1V30.6ZM68.892 29.608L69.5142 30.3908L69.5203 30.386L69.5263 30.3811L68.892 29.608ZM72.148 26.792C72.148 28.4758 71.5538 29.6927 70.3983 30.5723L71.6097 32.1637C73.3129 30.8673 74.148 29.0336 74.148 26.792H72.148ZM70.3983 30.5723C69.2021 31.4828 67.4599 32 65.052 32V34C67.7214 34 69.9472 33.4292 71.6097 32.1637L70.3983 30.5723ZM65.052 32H56.124V34H65.052V32ZM57.124 33V10.984H55.124V33H57.124ZM56.124 11.984H64.124V9.984H56.124V11.984ZM64.124 11.984C66.6213 11.984 68.3169 12.4204 69.364 13.143C70.3441 13.8194 70.868 14.8235 70.868 16.328H72.868C72.868 14.2699 72.1012 12.6019 70.5 11.497C68.9658 10.4382 66.7894 9.984 64.124 9.984V11.984ZM70.868 16.328C70.868 17.4315 70.5655 18.2997 70.0028 18.9948L71.5572 20.2532C72.4452 19.1563 72.868 17.8272 72.868 16.328H70.868ZM70.0102 18.9857C69.4546 19.6557 68.6336 20.1468 67.4591 20.4078L67.8929 22.3602C69.4064 22.0239 70.6547 21.3417 71.5498 20.2623L70.0102 18.9857ZM67.5549 22.3766C69.1497 22.5711 70.2569 23.0903 70.993 23.8431L72.423 22.4449C71.2818 21.2777 69.701 20.6235 67.7971 20.3914L67.5549 22.3766ZM71.0009 23.8511C71.7566 24.6068 72.148 25.5606 72.148 26.792H74.148C74.148 25.0794 73.5794 23.6012 72.4151 22.4369L71.0009 23.8511ZM69.86 16.68C69.86 15.2521 69.3464 14.0445 68.178 13.3065L67.11 14.9975C67.5629 15.2835 67.86 15.7612 67.86 16.68H69.86ZM68.178 13.3065C67.1382 12.6498 65.7456 12.384 64.124 12.384V14.384C65.5744 14.384 66.5285 14.6302 67.11 14.9975L68.178 13.3065ZM64.124 12.384H59.1V14.384H64.124V12.384ZM58.1 13.384V20.328H60.1V13.384H58.1ZM59.1 21.328H64.124V19.328H59.1V21.328ZM64.124 21.328C65.8146 21.328 67.265 21.0186 68.2899 20.2214L67.0621 18.6426C66.551 19.0401 65.6334 19.328 64.124 19.328V21.328ZM68.2794 20.2294C69.3804 19.3962 69.86 18.1439 69.86 16.68H67.86C67.86 17.6908 67.5502 18.2731 67.0726 18.6346L68.2794 20.2294ZM71.14 26.568C71.14 25.0034 70.5731 23.6965 69.3528 22.8259C68.1947 21.9997 66.5807 21.664 64.668 21.664V23.664C66.4033 23.664 67.5253 23.979 68.1912 24.4541C68.7949 24.8848 69.14 25.53 69.14 26.568H71.14ZM64.668 21.664H59.1V23.664H64.668V21.664ZM58.1 22.664V30.6H60.1V22.664H58.1ZM59.1 31.6H64.892V29.6H59.1V31.6ZM64.892 31.6C66.8046 31.6 68.4166 31.2633 69.5142 30.3908L68.2698 28.8252C67.7034 29.2753 66.6488 29.6 64.892 29.6V31.6ZM69.5263 30.3811C70.6461 29.4623 71.14 28.1301 71.14 26.568H69.14C69.14 27.6939 68.8019 28.3884 68.2577 28.8349L69.5263 30.3811ZM105.224 27.72L104.339 27.2551L104.334 27.2639L105.224 27.72ZM101.48 31.656L101.964 32.5313L101.972 32.5263L101.48 31.656ZM87.624 33H86.624V34H87.624V33ZM87.624 10.984V9.984H86.624V10.984H87.624ZM103.528 13.8L102.848 14.5336L102.853 14.5375L103.528 13.8ZM101.32 15.528L100.629 16.2504L100.634 16.2553L101.32 15.528ZM90.6 13.384V12.384H89.6V13.384H90.6ZM90.6 30.6H89.6V31.6H90.6V30.6ZM99.752 29.544L99.2575 28.6748L99.251 28.6786L99.752 29.544ZM102.6 26.504L103.494 26.9512L103.497 26.9455L102.6 26.504ZM105.568 21.768C105.568 23.8954 105.147 25.7148 104.339 27.2552L106.109 28.1848C107.093 26.3119 107.568 24.1632 107.568 21.768H105.568ZM104.334 27.2639C103.546 28.802 102.434 29.9675 100.988 30.7857L101.972 32.5263C103.769 31.5098 105.153 30.0513 106.114 28.1761L104.334 27.2639ZM100.996 30.7808C99.5442 31.5832 97.8381 32 95.848 32V34C98.1246 34 100.173 33.5208 101.964 32.5312L100.996 30.7808ZM95.848 32H87.624V34H95.848V32ZM88.624 33V10.984H86.624V33H88.624ZM87.624 11.984H94.92V9.984H87.624V11.984ZM94.92 11.984C98.4682 11.984 101.063 12.8793 102.848 14.5336L104.208 13.0664C101.94 10.966 98.7958 9.984 94.92 9.984V11.984ZM102.853 14.5375C104.622 16.1575 105.568 18.5152 105.568 21.768H107.568C107.568 18.1088 106.488 15.1545 104.203 13.0625L102.853 14.5375ZM104.592 21.768C104.592 18.8519 103.778 16.4728 102.006 14.8007L100.634 16.2553C101.891 17.4418 102.592 19.2228 102.592 21.768H104.592ZM102.011 14.8056C100.273 13.1417 97.8346 12.384 94.856 12.384V14.384C97.5094 14.384 99.3802 15.0556 100.629 16.2504L102.011 14.8056ZM94.856 12.384H90.6V14.384H94.856V12.384ZM89.6 13.384V30.6H91.6V13.384H89.6ZM90.6 31.6H95.528V29.6H90.6V31.6ZM95.528 31.6C97.2791 31.6 98.8646 31.2132 100.253 30.4094L99.251 28.6786C98.2074 29.2828 96.9769 29.6 95.528 29.6V31.6ZM100.247 30.4132C101.663 29.6073 102.748 28.4438 103.494 26.9512L101.706 26.0568C101.129 27.2096 100.316 28.0727 99.2575 28.6748L100.247 30.4132ZM103.497 26.9455C104.239 25.4382 104.592 23.7026 104.592 21.768H102.592C102.592 23.46 102.284 24.8818 101.703 26.0625L103.497 26.9455ZM110.718 33H109.718V34H110.718V33ZM110.718 10.984V9.984H109.718V10.984H110.718ZM127.422 10.984H128.422V9.984H127.422V10.984ZM127.422 13.416V14.416H128.422V13.416H127.422ZM113.694 13.416V12.416H112.694V13.416H113.694ZM113.694 20.488H112.694V21.488H113.694V20.488ZM126.494 20.488H127.494V19.488H126.494V20.488ZM126.494 22.888V23.888H127.494V22.888H126.494ZM113.694 22.888V21.888H112.694V22.888H113.694ZM113.694 30.568H112.694V31.568H113.694V30.568ZM128.062 30.568H129.062V29.568H128.062V30.568ZM128.062 33V34H129.062V33H128.062ZM111.718 33V10.984H109.718V33H111.718ZM110.718 11.984H127.422V9.984H110.718V11.984ZM126.422 10.984V13.416H128.422V10.984H126.422ZM127.422 12.416H113.694V14.416H127.422V12.416ZM112.694 13.416V20.488H114.694V13.416H112.694ZM113.694 21.488H126.494V19.488H113.694V21.488ZM125.494 20.488V22.888H127.494V20.488H125.494ZM126.494 21.888H113.694V23.888H126.494V21.888ZM112.694 22.888V30.568H114.694V22.888H112.694ZM113.694 31.568H128.062V29.568H113.694V31.568ZM127.062 30.568V33H129.062V30.568H127.062ZM128.062 32H110.718V34H128.062V32ZM141.598 33V34H142.27L142.524 33.3781L141.598 33ZM138.526 33L137.6 33.3781L137.854 34H138.526V33ZM129.534 10.984V9.984H128.046L128.608 11.3621L129.534 10.984ZM132.67 10.984L133.6 10.6169L133.351 9.984H132.67V10.984ZM138.782 26.472L139.73 26.1534L139.722 26.129L139.712 26.1049L138.782 26.472ZM140.094 30.376L139.146 30.6946L140.094 33.5151L141.042 30.6946L140.094 30.376ZM141.406 26.472L140.475 26.1083L140.466 26.1307L140.458 26.1534L141.406 26.472ZM147.454 10.984V9.984H146.771L146.523 10.6203L147.454 10.984ZM150.59 10.984L151.516 11.3621L152.079 9.984H150.59V10.984ZM141.598 32H138.526V34H141.598V32ZM139.452 32.6219L130.46 10.6059L128.608 11.3621L137.6 33.3781L139.452 32.6219ZM129.534 11.984H132.67V9.984H129.534V11.984ZM131.74 11.3511L137.852 26.8391L139.712 26.1049L133.6 10.6169L131.74 11.3511ZM137.834 26.7906L139.146 30.6946L141.042 30.0574L139.73 26.1534L137.834 26.7906ZM141.042 30.6946L142.354 26.7906L140.458 26.1534L139.146 30.0574L141.042 30.6946ZM142.338 26.8357L148.386 11.3477L146.523 10.6203L140.475 26.1083L142.338 26.8357ZM147.454 11.984H150.59V9.984H147.454V11.984ZM149.664 10.6059L140.672 32.6219L142.524 33.3781L151.516 11.3621L149.664 10.6059ZM153.343 33H152.343V34H153.343V33ZM153.343 10.984V9.984H152.343V10.984H153.343ZM170.047 10.984H171.047V9.984H170.047V10.984ZM170.047 13.416V14.416H171.047V13.416H170.047ZM156.319 13.416V12.416H155.319V13.416H156.319ZM156.319 20.488H155.319V21.488H156.319V20.488ZM169.119 20.488H170.119V19.488H169.119V20.488ZM169.119 22.888V23.888H170.119V22.888H169.119ZM156.319 22.888V21.888H155.319V22.888H156.319ZM156.319 30.568H155.319V31.568H156.319V30.568ZM170.687 30.568H171.687V29.568H170.687V30.568ZM170.687 33V34H171.687V33H170.687ZM154.343 33V10.984H152.343V33H154.343ZM153.343 11.984H170.047V9.984H153.343V11.984ZM169.047 10.984V13.416H171.047V10.984H169.047ZM170.047 12.416H156.319V14.416H170.047V12.416ZM155.319 13.416V20.488H157.319V13.416H155.319ZM156.319 21.488H169.119V19.488H156.319V21.488ZM168.119 20.488V22.888H170.119V20.488H168.119ZM169.119 21.888H156.319V23.888H169.119V21.888ZM155.319 22.888V30.568H157.319V22.888H155.319ZM156.319 31.568H170.687V29.568H156.319V31.568ZM169.687 30.568V33H171.687V30.568H169.687ZM170.687 32H153.343V34H170.687V32ZM174.655 33H173.655V34H174.655V33ZM174.655 10.984V9.984H173.655V10.984H174.655ZM177.631 10.984H178.631V9.984H177.631V10.984ZM177.631 30.568H176.631V31.568H177.631V30.568ZM188.767 30.568H189.767V29.568H188.767V30.568ZM188.767 33V34H189.767V33H188.767ZM175.655 33V10.984H173.655V33H175.655ZM174.655 11.984H177.631V9.984H174.655V11.984ZM176.631 10.984V30.568H178.631V10.984H176.631ZM177.631 31.568H188.767V29.568H177.631V31.568ZM187.767 30.568V33H189.767V30.568H187.767ZM188.767 32H174.655V34H188.767V32ZM211.829 27.944L210.941 27.4837L210.936 27.4924L211.829 27.944ZM208.053 31.944L208.54 32.8171L208.549 32.8122L208.053 31.944ZM196.373 31.944L196.86 31.0709L196.86 31.0709L196.373 31.944ZM192.597 27.976L191.698 28.4144L191.701 28.421L191.704 28.4276L192.597 27.976ZM194.197 13.64L193.482 12.9406L193.478 12.9446L194.197 13.64ZM208.085 12.008L207.606 12.8859L207.615 12.8907L208.085 12.008ZM211.861 15.88L210.971 16.3361L210.973 16.3406L211.861 15.88ZM208.053 15.432L208.804 14.7728L208.804 14.7728L208.053 15.432ZM196.405 15.4L195.662 14.7299L195.657 14.7356L196.405 15.4ZM196.437 28.456L197.196 27.806L197.196 27.806L196.437 28.456ZM208.053 28.552L207.296 27.8978L207.295 27.8986L208.053 28.552ZM212.173 21.896C212.173 24.0691 211.751 25.9218 210.941 27.4837L212.716 28.4043C213.698 26.5102 214.173 24.3309 214.173 21.896H212.173ZM210.936 27.4924C210.148 29.0501 209.025 30.2366 207.556 31.0758L208.549 32.8122C210.365 31.774 211.76 30.2939 212.721 28.3956L210.936 27.4924ZM207.565 31.0709C206.097 31.8905 204.33 32.32 202.229 32.32V34.32C204.607 34.32 206.722 33.8322 208.54 32.8171L207.565 31.0709ZM202.229 32.32C200.103 32.32 198.326 31.8897 196.86 31.0709L195.885 32.8171C197.704 33.8329 199.831 34.32 202.229 34.32V32.32ZM196.86 31.0709C195.397 30.2536 194.276 29.0803 193.489 27.5244L191.704 28.4276C192.666 30.3277 194.063 31.7997 195.885 32.8171L196.86 31.0709ZM193.495 27.5376C192.72 25.9477 192.317 24.0758 192.317 21.896H190.317C190.317 24.3242 190.767 26.5057 191.698 28.4144L193.495 27.5376ZM192.317 21.896C192.317 18.561 193.221 16.0855 194.915 14.3354L193.478 12.9446C191.332 15.1625 190.317 18.191 190.317 21.896H192.317ZM194.911 14.3394C196.622 12.5913 199.027 11.664 202.261 11.664V9.664C198.625 9.664 195.654 10.7207 193.482 12.9406L194.911 14.3394ZM202.261 11.664C204.366 11.664 206.136 12.0844 207.606 12.8859L208.563 11.1301C206.747 10.1396 204.635 9.664 202.261 9.664V11.664ZM207.615 12.8907C209.071 13.6663 210.186 14.8053 210.971 16.3361L212.75 15.4239C211.786 13.5414 210.383 12.099 208.554 11.1253L207.615 12.8907ZM210.973 16.3406C211.759 17.8552 212.173 19.6955 212.173 21.896H214.173C214.173 19.4458 213.711 17.2755 212.748 15.4194L210.973 16.3406ZM211.101 21.896C211.101 18.9823 210.376 16.5653 208.804 14.7728L207.301 16.0912C208.46 17.4134 209.101 19.3057 209.101 21.896H211.101ZM208.804 14.7728C207.21 12.9546 204.98 12.096 202.261 12.096V14.096C204.533 14.096 206.164 14.7947 207.301 16.0912L208.804 14.7728ZM202.261 12.096C199.527 12.096 197.279 12.9392 195.662 14.7299L197.147 16.0701C198.303 14.7888 199.96 14.096 202.261 14.096V12.096ZM195.657 14.7356C194.078 16.5117 193.357 18.9453 193.357 21.896H195.357C195.357 19.2574 196 17.3603 197.152 16.0644L195.657 14.7356ZM193.357 21.896C193.357 24.8157 194.095 27.2562 195.677 29.106L197.196 27.806C196.005 26.4131 195.357 24.4803 195.357 21.896H193.357ZM195.677 29.106C197.285 30.9861 199.513 31.888 202.229 31.888V29.888C199.994 29.888 198.362 29.1686 197.196 27.806L195.677 29.106ZM202.229 31.888C204.984 31.888 207.232 31.0332 208.81 29.2053L207.295 27.8986C206.185 29.1855 204.55 29.888 202.229 29.888V31.888ZM208.809 29.2062C210.381 27.3882 211.101 24.906 211.101 21.896H209.101C209.101 24.6034 208.455 26.5584 207.296 27.8978L208.809 29.2062ZM232.288 22.6L232.958 23.3415L232.959 23.341L232.288 22.6ZM220.288 24.424V23.424H219.288V24.424H220.288ZM220.288 33V34H221.288V33H220.288ZM217.312 33H216.312V34H217.312V33ZM217.312 10.984V9.984H216.312V10.984H217.312ZM232.288 12.712L231.637 13.4713L231.643 13.4763L232.288 12.712ZM220.288 13.384V12.384H219.288V13.384H220.288ZM220.288 22.056H219.288V23.056H220.288V22.056ZM233.336 17.608C233.336 19.4584 232.743 20.8378 231.616 21.859L232.959 23.341C234.563 21.8876 235.336 19.9389 235.336 17.608H233.336ZM231.617 21.8585C230.505 22.8638 228.925 23.424 226.752 23.424V25.424C229.271 25.424 231.382 24.7682 232.958 23.3415L231.617 21.8585ZM226.752 23.424H220.288V25.424H226.752V23.424ZM219.288 24.424V33H221.288V24.424H219.288ZM220.288 32H217.312V34H220.288V32ZM218.312 33V10.984H216.312V33H218.312ZM217.312 11.984H226.592V9.984H217.312V11.984ZM226.592 11.984C228.898 11.984 230.533 12.5254 231.637 13.4713L232.938 11.9527C231.354 10.5946 229.192 9.984 226.592 9.984V11.984ZM231.643 13.4763C232.741 14.4031 233.336 15.7312 233.336 17.608H235.336C235.336 15.2608 234.565 13.3249 232.932 11.9477L231.643 13.4763ZM232.328 17.64C232.328 16.0136 231.83 14.6289 230.687 13.679C229.579 12.7585 228.028 12.384 226.208 12.384V14.384C227.8 14.384 228.809 14.7188 229.408 15.217C229.972 15.6858 230.328 16.4291 230.328 17.64H232.328ZM226.208 12.384H220.288V14.384H226.208V12.384ZM219.288 13.384V22.056H221.288V13.384H219.288ZM220.288 23.056H226.336V21.056H220.288V23.056ZM226.336 23.056C228.126 23.056 229.655 22.6628 230.742 21.701C231.853 20.7185 232.328 19.3001 232.328 17.64H230.328C230.328 18.9239 229.97 19.7135 229.417 20.203C228.84 20.7132 227.873 21.056 226.336 21.056V23.056ZM257.344 33H256.344V34H257.344V33ZM257.472 13.64L258.47 13.697L256.508 13.3741L257.472 13.64ZM256.096 17.992L255.164 17.6305L255.16 17.6389L256.096 17.992ZM250.432 33V34H251.123L251.368 33.3531L250.432 33ZM248.32 33L247.386 33.3583L247.633 34H248.32V33ZM242.56 17.992L241.609 18.3013L241.617 18.3261L241.626 18.3503L242.56 17.992ZM241.696 15.336L240.739 15.625L240.742 15.6352L240.745 15.6453L241.696 15.336ZM241.184 13.64L242.141 13.351L240.184 13.6585L241.184 13.64ZM241.216 15.368L240.216 15.3865L240.216 15.3897L241.216 15.368ZM241.28 18.312H242.28V18.3011L242.28 18.2903L241.28 18.312ZM241.28 33V34H242.28V33H241.28ZM238.624 33H237.624V34H238.624V33ZM238.624 10.984V9.984H237.624V10.984H238.624ZM242.56 10.984L243.494 10.6258L243.247 9.984H242.56V10.984ZM248.416 26.248L249.371 25.9516L249.361 25.9204L249.35 25.8898L248.416 26.248ZM248.992 28.232L248.027 28.4951L248.027 28.4951L248.992 28.232ZM249.376 29.736L248.398 29.9455L250.355 29.942L249.376 29.736ZM249.888 27.848L248.937 27.5389L248.933 27.5497L248.93 27.5607L249.888 27.848ZM250.464 26.248L251.358 26.6952L251.382 26.6484L251.4 26.5993L250.464 26.248ZM256.192 10.984V9.984H255.499L255.256 10.6327L256.192 10.984ZM260.032 10.984H261.032V9.984H260.032V10.984ZM260.032 33V34H261.032V33H260.032ZM258.344 33V18.312H256.344V33H258.344ZM258.344 18.312C258.344 16.7081 258.386 15.1699 258.47 13.697L256.474 13.583C256.387 15.0968 256.344 16.6732 256.344 18.312H258.344ZM256.508 13.3741C256 15.2171 255.551 16.6308 255.164 17.6305L257.028 18.3535C257.451 17.2625 257.92 15.7749 258.436 13.9059L256.508 13.3741ZM255.16 17.6389L249.496 32.6469L251.368 33.3531L257.032 18.3451L255.16 17.6389ZM250.432 32H248.32V34H250.432V32ZM249.254 32.6417L243.494 17.6337L241.626 18.3503L247.386 33.3583L249.254 32.6417ZM243.511 17.6827L242.647 15.0267L240.745 15.6453L241.609 18.3013L243.511 17.6827ZM242.653 15.047L242.141 13.351L240.227 13.929L240.739 15.625L242.653 15.047ZM240.184 13.6585L240.216 15.3865L242.216 15.3495L242.184 13.6215L240.184 13.6585ZM240.216 15.3897L240.28 18.3337L242.28 18.2903L242.216 15.3463L240.216 15.3897ZM240.28 18.312V33H242.28V18.312H240.28ZM241.28 32H238.624V34H241.28V32ZM239.624 33V10.984H237.624V33H239.624ZM238.624 11.984H242.56V9.984H238.624V11.984ZM241.626 11.3422L247.482 26.6062L249.35 25.8898L243.494 10.6258L241.626 11.3422ZM247.461 26.5444C247.649 27.1508 247.838 27.8009 248.027 28.4951L249.957 27.9689C249.762 27.2551 249.567 26.5826 249.371 25.9516L247.461 26.5444ZM248.027 28.4951C248.219 29.1989 248.341 29.6766 248.398 29.9455L250.354 29.5265C250.283 29.1981 250.149 28.6731 249.957 27.9689L248.027 28.4951ZM250.355 29.942C250.431 29.5804 250.591 28.9851 250.846 28.1353L248.93 27.5607C248.673 28.4176 248.492 29.0809 248.397 29.53L250.355 29.942ZM250.839 28.1571C251.124 27.28 251.292 26.8271 251.358 26.6952L249.57 25.8008C249.422 26.0955 249.207 26.7093 248.937 27.5389L250.839 28.1571ZM251.4 26.5993L257.128 11.3353L255.256 10.6327L249.528 25.8967L251.4 26.5993ZM256.192 11.984H260.032V9.984H256.192V11.984ZM259.032 10.984V33H261.032V10.984H259.032ZM260.032 32H257.344V34H260.032V32ZM265.28 33H264.28V34H265.28V33ZM265.28 10.984V9.984H264.28V10.984H265.28ZM281.984 10.984H282.984V9.984H281.984V10.984ZM281.984 13.416V14.416H282.984V13.416H281.984ZM268.256 13.416V12.416H267.256V13.416H268.256ZM268.256 20.488H267.256V21.488H268.256V20.488ZM281.056 20.488H282.056V19.488H281.056V20.488ZM281.056 22.888V23.888H282.056V22.888H281.056ZM268.256 22.888V21.888H267.256V22.888H268.256ZM268.256 30.568H267.256V31.568H268.256V30.568ZM282.624 30.568H283.624V29.568H282.624V30.568ZM282.624 33V34H283.624V33H282.624ZM266.28 33V10.984H264.28V33H266.28ZM265.28 11.984H281.984V9.984H265.28V11.984ZM280.984 10.984V13.416H282.984V10.984H280.984ZM281.984 12.416H268.256V14.416H281.984V12.416ZM267.256 13.416V20.488H269.256V13.416H267.256ZM268.256 21.488H281.056V19.488H268.256V21.488ZM280.056 20.488V22.888H282.056V20.488H280.056ZM281.056 21.888H268.256V23.888H281.056V21.888ZM267.256 22.888V30.568H269.256V22.888H267.256ZM268.256 31.568H282.624V29.568H268.256V31.568ZM281.624 30.568V33H283.624V30.568H281.624ZM282.624 32H265.28V34H282.624V32ZM300.865 33L300.018 33.5318L300.312 34H300.865V33ZM289.089 14.248L289.936 13.7162L288.091 14.3117L289.089 14.248ZM289.185 15.752L290.184 15.7276L290.184 15.7079L290.183 15.6883L289.185 15.752ZM289.249 18.376H290.249V18.3638L290.248 18.3516L289.249 18.376ZM289.249 33V34H290.249V33H289.249ZM286.593 33H285.593V34H286.593V33ZM286.593 10.984V9.984H285.593V10.984H286.593ZM290.049 10.984L290.895 10.4507L290.6 9.984H290.049V10.984ZM301.953 29.864L301.107 30.3973L303.151 33.639L302.951 29.812L301.953 29.864ZM301.793 10.984V9.984H300.793V10.984H301.793ZM304.481 10.984H305.481V9.984H304.481V10.984ZM304.481 33V34H305.481V33H304.481ZM301.712 32.4682L289.936 13.7162L288.242 14.7798L300.018 33.5318L301.712 32.4682ZM288.091 14.3117L288.187 15.8157L290.183 15.6883L290.087 14.1843L288.091 14.3117ZM288.185 15.7764L288.249 18.4004L290.248 18.3516L290.184 15.7276L288.185 15.7764ZM288.249 18.376V33H290.249V18.376H288.249ZM289.249 32H286.593V34H289.249V32ZM287.593 33V10.984H285.593V33H287.593ZM286.593 11.984H290.049V9.984H286.593V11.984ZM289.203 11.5173L301.107 30.3973L302.799 29.3307L290.895 10.4507L289.203 11.5173ZM302.951 29.812C302.845 27.7655 302.793 26.3053 302.793 25.416H300.793C300.793 26.3614 300.847 27.8665 300.954 29.916L302.951 29.812ZM302.793 25.416V10.984H300.793V25.416H302.793ZM301.793 11.984H304.481V9.984H301.793V11.984ZM303.481 10.984V33H305.481V10.984H303.481ZM304.481 32H300.865V34H304.481V32ZM318.295 13.416V12.416H317.295V13.416H318.295ZM318.295 33V34H319.295V33H318.295ZM315.319 33H314.319V34H315.319V33ZM315.319 13.416H316.319V12.416H315.319V13.416ZM307.767 13.416H306.767V14.416H307.767V13.416ZM307.767 10.984V9.984H306.767V10.984H307.767ZM325.847 10.984H326.847V9.984H325.847V10.984ZM325.847 13.416V14.416H326.847V13.416H325.847ZM317.295 13.416V33H319.295V13.416H317.295ZM318.295 32H315.319V34H318.295V32ZM316.319 33V13.416H314.319V33H316.319ZM315.319 12.416H307.767V14.416H315.319V12.416ZM308.767 13.416V10.984H306.767V13.416H308.767ZM307.767 11.984H325.847V9.984H307.767V11.984ZM324.847 10.984V13.416H326.847V10.984H324.847ZM325.847 12.416H318.295V14.416H325.847V12.416ZM350.765 31.208L351.49 30.5186L350.832 29.8279L350.111 30.4516L350.765 31.208ZM348.077 32.776L347.737 31.8356L348.077 32.776ZM339.725 31.72L339.058 32.4652L339.065 32.4714L339.072 32.4774L339.725 31.72ZM343.245 20.488L343.65 21.4023L344.634 20.9665L344.128 20.0174L343.245 20.488ZM342.349 18.216L341.382 18.4694L341.385 18.4832L341.39 18.4969L342.349 18.216ZM343.405 12.168L344.078 12.9079L344.079 12.9072L343.405 12.168ZM351.277 12.04L350.642 12.8124L350.642 12.8124L351.277 12.04ZM351.277 18.568L350.57 17.8608L350.562 17.8689L351.277 18.568ZM346.349 21.416L345.978 20.4875L344.936 20.9041L345.469 21.8911L346.349 21.416ZM350.925 27.848L350.175 28.5091L351.028 29.477L351.753 28.4098L350.925 27.848ZM353.581 21.448L353.865 20.4891L352.85 20.1889L352.608 21.219L353.581 21.448ZM355.853 22.12L356.822 22.3663L357.059 21.4339L356.137 21.1611L355.853 22.12ZM352.557 29.448L351.728 28.8897L351.278 29.5582L351.835 30.1399L352.557 29.448ZM357.613 30.728H358.613V29.3003L357.272 29.7882L357.613 30.728ZM357.613 32.84L357.991 33.7661L358.613 33.5124V32.84H357.613ZM349.549 13.48L348.857 14.202L348.873 14.2167L348.889 14.2307L349.549 13.48ZM345.165 13.544L344.444 12.8515L344.444 12.8515L345.165 13.544ZM345.389 19.592L344.492 20.0335L344.903 20.8689L345.766 20.5185L345.389 19.592ZM349.837 16.84L349.029 16.2518L349.02 16.2641L349.011 16.2767L349.837 16.84ZM349.197 29.608L349.89 30.3288L350.569 29.6766L349.959 28.96L349.197 29.608ZM344.205 22.472L345.085 21.996L344.651 21.195L343.813 21.552L344.205 22.472ZM341.741 30.184L341.064 30.9195L341.069 30.9244L341.074 30.9292L341.741 30.184ZM347.245 30.856L347.602 31.7901L347.61 31.7873L347.617 31.7845L347.245 30.856ZM355.405 32.192C353.843 32.192 352.559 31.6419 351.49 30.5186L350.041 31.8974C351.489 33.4195 353.298 34.192 355.405 34.192V32.192ZM350.111 30.4516C349.416 31.0525 348.627 31.5136 347.737 31.8356L348.417 33.7164C349.533 33.313 350.536 32.7288 351.419 31.9644L350.111 30.4516ZM347.737 31.8356C346.846 32.158 345.916 32.32 344.941 32.32V34.32C346.143 34.32 347.303 34.1193 348.417 33.7164L347.737 31.8356ZM344.941 32.32C342.852 32.32 341.376 31.8231 340.378 30.9626L339.072 32.4774C340.549 33.7503 342.551 34.32 344.941 34.32V32.32ZM340.392 30.9748C339.426 30.1104 338.901 28.8986 338.901 27.208H336.901C336.901 29.3574 337.593 31.1536 339.058 32.4652L340.392 30.9748ZM338.901 27.208C338.901 24.8421 340.301 22.8863 343.65 21.4023L342.84 19.5737C339.064 21.2471 336.901 23.7712 336.901 27.208H338.901ZM344.128 20.0174C343.825 19.4509 343.55 18.76 343.309 17.9351L341.39 18.4969C341.66 19.4214 341.982 20.2451 342.363 20.9586L344.128 20.0174ZM343.317 17.9626C343.098 17.1277 342.997 16.4041 342.997 15.784H340.997C340.997 16.6146 341.131 17.5123 341.382 18.4694L343.317 17.9626ZM342.997 15.784C342.997 14.4392 343.394 13.5297 344.078 12.9079L342.733 11.4281C341.539 12.5129 340.997 14.0141 340.997 15.784H342.997ZM344.079 12.9072C344.799 12.2513 345.881 11.856 347.469 11.856V9.856C345.559 9.856 343.932 10.3354 342.732 11.4288L344.079 12.9072ZM347.469 11.856C348.88 11.856 349.905 12.2063 350.642 12.8124L351.912 11.2676C350.73 10.2951 349.216 9.856 347.469 9.856V11.856ZM350.642 12.8124C351.343 13.3883 351.717 14.1773 351.717 15.304H353.717C353.717 13.6574 353.132 12.2704 351.912 11.2676L350.642 12.8124ZM351.717 15.304C351.717 16.2228 351.367 17.0645 350.57 17.8609L351.984 19.2751C353.108 18.1515 353.717 16.8172 353.717 15.304H351.717ZM350.562 17.8689C349.773 18.6761 348.289 19.5629 345.978 20.4875L346.721 22.3445C349.102 21.3917 350.904 20.3799 351.992 19.2671L350.562 17.8689ZM345.469 21.8911C346.663 24.1021 348.235 26.3077 350.175 28.5091L351.676 27.1869C349.818 25.079 348.339 22.9966 347.229 20.9409L345.469 21.8911ZM351.753 28.4098C353.009 26.5591 353.936 24.3062 354.555 21.677L352.608 21.219C352.032 23.6672 351.188 25.6809 350.098 27.2862L351.753 28.4098ZM353.298 22.4069L355.57 23.0789L356.137 21.1611L353.865 20.4891L353.298 22.4069ZM354.884 21.8737C354.252 24.3624 353.201 26.6999 351.728 28.8897L353.387 30.0063C354.985 27.6308 356.132 25.0829 356.822 22.3663L354.884 21.8737ZM351.835 30.1399C352.963 31.3165 354.288 31.984 355.789 31.984V29.984C354.944 29.984 354.114 29.6275 353.279 28.7561L351.835 30.1399ZM355.789 31.984C356.6 31.984 357.336 31.8929 357.955 31.6678L357.272 29.7882C356.952 29.9045 356.471 29.984 355.789 29.984V31.984ZM356.613 30.728V32.84H358.613V30.728H356.613ZM357.236 31.9139C356.82 32.0833 356.224 32.192 355.405 32.192V34.192C356.378 34.192 357.254 34.066 357.991 33.7661L357.236 31.9139ZM351.349 15.304C351.349 14.2866 350.971 13.3992 350.21 12.7293L348.889 14.2307C349.194 14.4995 349.349 14.8281 349.349 15.304H351.349ZM350.241 12.758C349.497 12.0452 348.52 11.744 347.437 11.744V13.744C348.146 13.744 348.577 13.9335 348.857 14.202L350.241 12.758ZM347.437 11.744C346.263 11.744 345.204 12.0595 344.444 12.8515L345.887 14.2365C346.15 13.9618 346.607 13.744 347.437 13.744V11.744ZM344.444 12.8515C343.705 13.6216 343.397 14.6457 343.397 15.784H345.397C345.397 15.0023 345.602 14.5331 345.887 14.2365L344.444 12.8515ZM343.397 15.784C343.397 17.1656 343.78 18.5861 344.492 20.0335L346.287 19.1505C345.676 17.9099 345.397 16.7917 345.397 15.784H343.397ZM345.766 20.5185C347.145 19.9582 348.215 19.4513 348.932 18.9968L347.862 17.3072C347.3 17.6633 346.364 18.1165 345.013 18.6655L345.766 20.5185ZM348.932 18.9968C349.651 18.5416 350.246 18.0162 350.663 17.4033L349.011 16.2767C348.789 16.6024 348.423 16.9518 347.862 17.3072L348.932 18.9968ZM350.646 17.4282C351.105 16.7963 351.349 16.0802 351.349 15.304H349.349C349.349 15.6371 349.252 15.945 349.029 16.2518L350.646 17.4282ZM349.959 28.96C347.926 26.5705 346.304 24.2489 345.085 21.996L343.326 22.948C344.624 25.3457 346.33 27.7815 348.436 30.256L349.959 28.96ZM343.813 21.552C342.482 22.1193 341.404 22.8612 340.658 23.8158C339.899 24.785 339.525 25.9194 339.525 27.176H341.525C341.525 26.342 341.764 25.647 342.233 25.0482C342.713 24.4348 343.475 23.87 344.597 23.392L343.813 21.552ZM339.525 27.176C339.525 28.6704 340.017 29.9558 341.064 30.9195L342.419 29.4485C341.844 28.9188 341.525 28.1989 341.525 27.176H339.525ZM341.074 30.9292C342.115 31.8599 343.474 32.272 345.037 32.272V30.272C343.827 30.272 342.989 29.9588 342.408 29.4388L341.074 30.9292ZM345.037 32.272C345.911 32.272 346.768 32.1092 347.602 31.7901L346.888 29.9219C346.272 30.1575 345.657 30.272 345.037 30.272V32.272ZM347.617 31.7845C348.477 31.4402 349.239 30.9555 349.89 30.3288L348.504 28.8872C348.047 29.3272 347.506 29.6745 346.874 29.9275L347.617 31.7845ZM388.505 27.72L387.62 27.2551L387.615 27.2639L388.505 27.72ZM384.761 31.656L385.245 32.5313L385.254 32.5263L384.761 31.656ZM370.905 33H369.905V34H370.905V33ZM370.905 10.984V9.984H369.905V10.984H370.905ZM386.809 13.8L386.13 14.5336L386.134 14.5375L386.809 13.8ZM384.601 15.528L383.91 16.2504L383.915 16.2553L384.601 15.528ZM373.881 13.384V12.384H372.881V13.384H373.881ZM373.881 30.6H372.881V31.6H373.881V30.6ZM383.033 29.544L382.539 28.6748L382.532 28.6786L383.033 29.544ZM385.881 26.504L386.776 26.9512L386.779 26.9455L385.881 26.504ZM388.849 21.768C388.849 23.8954 388.429 25.7148 387.62 27.2552L389.391 28.1848C390.374 26.3119 390.849 24.1632 390.849 21.768H388.849ZM387.615 27.2639C386.827 28.802 385.715 29.9675 384.269 30.7857L385.254 32.5263C387.05 31.5098 388.434 30.0513 389.395 28.1761L387.615 27.2639ZM384.278 30.7808C382.825 31.5832 381.119 32 379.129 32V34C381.406 34 383.454 33.5208 385.245 32.5312L384.278 30.7808ZM379.129 32H370.905V34H379.129V32ZM371.905 33V10.984H369.905V33H371.905ZM370.905 11.984H378.201V9.984H370.905V11.984ZM378.201 11.984C381.749 11.984 384.344 12.8793 386.13 14.5336L387.489 13.0664C385.221 10.966 382.077 9.984 378.201 9.984V11.984ZM386.134 14.5375C387.903 16.1575 388.849 18.5152 388.849 21.768H390.849C390.849 18.1088 389.769 15.1545 387.485 13.0625L386.134 14.5375ZM387.873 21.768C387.873 18.8519 387.06 16.4728 385.288 14.8007L383.915 16.2553C385.172 17.4418 385.873 19.2228 385.873 21.768H387.873ZM385.293 14.8056C383.554 13.1417 381.116 12.384 378.137 12.384V14.384C380.791 14.384 382.661 15.0556 383.91 16.2504L385.293 14.8056ZM378.137 12.384H373.881V14.384H378.137V12.384ZM372.881 13.384V30.6H374.881V13.384H372.881ZM373.881 31.6H378.809V29.6H373.881V31.6ZM378.809 31.6C380.56 31.6 382.146 31.2132 383.534 30.4094L382.532 28.6786C381.489 29.2828 380.258 29.6 378.809 29.6V31.6ZM383.528 30.4132C384.944 29.6073 386.029 28.4438 386.776 26.9512L384.987 26.0568C384.41 27.2096 383.597 28.0727 382.539 28.6748L383.528 30.4132ZM386.779 26.9455C387.52 25.4382 387.873 23.7026 387.873 21.768H385.873C385.873 23.46 385.565 24.8818 384.984 26.0625L386.779 26.9455ZM393.999 33H392.999V34H393.999V33ZM393.999 10.984V9.984H392.999V10.984H393.999ZM410.703 10.984H411.703V9.984H410.703V10.984ZM410.703 13.416V14.416H411.703V13.416H410.703ZM396.975 13.416V12.416H395.975V13.416H396.975ZM396.975 20.488H395.975V21.488H396.975V20.488ZM409.775 20.488H410.775V19.488H409.775V20.488ZM409.775 22.888V23.888H410.775V22.888H409.775ZM396.975 22.888V21.888H395.975V22.888H396.975ZM396.975 30.568H395.975V31.568H396.975V30.568ZM411.343 30.568H412.343V29.568H411.343V30.568ZM411.343 33V34H412.343V33H411.343ZM394.999 33V10.984H392.999V33H394.999ZM393.999 11.984H410.703V9.984H393.999V11.984ZM409.703 10.984V13.416H411.703V10.984H409.703ZM410.703 12.416H396.975V14.416H410.703V12.416ZM395.975 13.416V20.488H397.975V13.416H395.975ZM396.975 21.488H409.775V19.488H396.975V21.488ZM408.775 20.488V22.888H410.775V20.488H408.775ZM409.775 21.888H396.975V23.888H409.775V21.888ZM395.975 22.888V30.568H397.975V22.888H395.975ZM396.975 31.568H411.343V29.568H396.975V31.568ZM410.343 30.568V33H412.343V30.568H410.343ZM411.343 32H393.999V34H411.343V32ZM430.16 31.656L430.734 32.4742L430.737 32.4727L430.16 31.656ZM414.128 27.72L413.931 26.7394L412.924 26.941L413.153 27.9428L414.128 27.72ZM417.008 27.144L417.976 26.8941L417.739 25.9778L416.811 26.1634L417.008 27.144ZM419.152 30.056L418.657 30.9253L418.657 30.9253L419.152 30.056ZM428.016 29.992L428.55 30.8371L428.55 30.8371L428.016 29.992ZM427.728 24.232L427.28 25.1264L427.293 25.1329L427.306 25.139L427.728 24.232ZM425.584 23.496L425.329 24.4631L425.344 24.467L425.359 24.4704L425.584 23.496ZM422.864 22.856L422.649 23.8328L422.655 23.8341L422.864 22.856ZM418.896 21.704L418.483 22.6151L418.492 22.6192L418.502 22.6231L418.896 21.704ZM416.752 20.392L416.076 21.1292L416.083 21.136L416.091 21.1427L416.752 20.392ZM415.568 18.728L414.65 19.1256L414.65 19.1256L415.568 18.728ZM417.296 12.2L417.87 13.0187L417.872 13.017L417.296 12.2ZM429.264 11.816L429.766 10.9512L429.766 10.9512L429.264 11.816ZM432.048 15.72L432.219 16.7052L433.32 16.5138L433.008 15.4409L432.048 15.72ZM429.104 16.232L428.139 16.4951L428.378 17.3731L429.275 17.2172L429.104 16.232ZM427.248 13.704L426.736 14.5633L426.748 14.5704L426.76 14.5772L427.248 13.704ZM419.44 13.8L419.971 14.6469L419.976 14.6437L419.44 13.8ZM418.608 18.088L417.83 18.7172L417.838 18.7265L417.846 18.7356L418.608 18.088ZM420.144 19.208L419.708 20.1082L419.725 20.1165L419.743 20.1242L420.144 19.208ZM424.208 20.328L423.992 21.3044L423.994 21.3049L424.208 20.328ZM426.224 20.808L425.974 21.7763L425.992 21.7809L426.01 21.7849L426.224 20.808ZM428.144 21.384L427.778 22.3148L427.798 22.3225L427.818 22.3294L428.144 21.384ZM429.872 22.184L429.357 23.0415L429.377 23.0535L429.397 23.0645L429.872 22.184ZM431.28 23.304L430.52 23.9548L430.537 23.9742L430.555 23.9927L431.28 23.304ZM432.208 24.84L431.266 25.1763L431.273 25.197L431.281 25.2173L432.208 24.84ZM431.56 26.92C431.56 28.6352 430.907 29.9036 429.582 30.8393L430.737 32.4727C432.612 31.1471 433.56 29.2581 433.56 26.92H431.56ZM429.585 30.8378C428.239 31.7836 426.242 32.32 423.472 32.32V34.32C426.461 34.32 428.923 33.747 430.734 32.4742L429.585 30.8378ZM423.472 32.32C420.883 32.32 418.962 31.8681 417.618 31.0622C416.308 30.2773 415.472 29.1145 415.102 27.4972L413.153 27.9428C413.636 30.0588 414.785 31.696 416.589 32.7778C418.359 33.8386 420.684 34.32 423.472 34.32V32.32ZM414.324 28.7006L417.204 28.1246L416.811 26.1634L413.931 26.7394L414.324 28.7006ZM416.039 27.3939C416.441 28.9521 417.311 30.1599 418.657 30.9253L419.646 29.1867C418.816 28.7148 418.256 27.9812 417.976 26.8941L416.039 27.3939ZM418.657 30.9253C419.951 31.6612 421.616 31.984 423.568 31.984V29.984C421.807 29.984 420.528 29.6881 419.646 29.1867L418.657 30.9253ZM423.568 31.984C425.581 31.984 427.279 31.641 428.55 30.8371L427.481 29.1469C426.661 29.6656 425.394 29.984 423.568 29.984V31.984ZM428.55 30.8371C429.897 29.9849 430.583 28.6884 430.583 27.08H428.583C428.583 28.0316 428.224 28.6765 427.481 29.1469L428.55 30.8371ZM430.583 27.08C430.583 26.2119 430.392 25.4029 429.917 24.7388L428.29 25.9012C428.455 26.1331 428.583 26.4975 428.583 27.08H430.583ZM429.917 24.7388C429.479 24.1248 428.872 23.6608 428.149 23.325L427.306 25.139C427.778 25.3578 428.088 25.6192 428.29 25.9012L429.917 24.7388ZM428.175 23.3376C427.49 22.9954 426.697 22.7267 425.808 22.5216L425.359 24.4704C426.134 24.6493 426.77 24.8713 427.28 25.1264L428.175 23.3376ZM425.838 22.5289C425.009 22.3108 424.087 22.0938 423.072 21.8779L422.655 23.8341C423.646 24.0448 424.537 24.2546 425.329 24.4631L425.838 22.5289ZM423.078 21.8793C421.348 21.4996 420.098 21.1315 419.289 20.7849L418.502 22.6231C419.485 23.0445 420.88 23.4444 422.649 23.8327L423.078 21.8793ZM419.308 20.7929C418.47 20.414 417.849 20.0254 417.412 19.6413L416.091 21.1427C416.721 21.6973 417.529 22.1834 418.483 22.6151L419.308 20.7929ZM417.427 19.6548C417.019 19.2809 416.707 18.842 416.485 18.3304L414.65 19.1256C414.983 19.894 415.46 20.5645 416.076 21.1292L417.427 19.6548ZM416.485 18.3304C416.27 17.8346 416.152 17.2479 416.152 16.552H414.152C414.152 17.4775 414.31 18.3414 414.65 19.1256L416.485 18.3304ZM416.152 16.552C416.152 14.9459 416.734 13.8157 417.87 13.0187L416.721 11.3813C414.999 12.5896 414.152 14.3608 414.152 16.552H416.152ZM417.872 13.017C419.088 12.159 420.922 11.664 423.504 11.664V9.664C420.709 9.664 418.405 10.193 416.719 11.383L417.872 13.017ZM423.504 11.664C425.946 11.664 427.66 12.0413 428.761 12.6808L429.766 10.9512C428.222 10.0547 426.096 9.664 423.504 9.664V11.664ZM428.761 12.6808C429.81 13.2895 430.607 14.3468 431.087 15.9991L433.008 15.4409C432.421 13.4239 431.363 11.8785 429.766 10.9512L428.761 12.6808ZM431.876 14.7348L428.932 15.2468L429.275 17.2172L432.219 16.7052L431.876 14.7348ZM430.068 15.9689C429.69 14.5807 428.924 13.4946 427.735 12.8308L426.76 14.5772C427.405 14.9374 427.877 15.5366 428.139 16.4951L430.068 15.9689ZM427.759 12.8447C426.645 12.1817 425.181 11.904 423.472 11.904V13.904C425.004 13.904 426.058 14.1597 426.736 14.5633L427.759 12.8447ZM423.472 11.904C421.632 11.904 420.069 12.2141 418.903 12.9563L419.976 14.6437C420.687 14.1913 421.813 13.904 423.472 13.904V11.904ZM418.908 12.9531C417.677 13.7256 417.064 14.9223 417.064 16.392H419.064C419.064 15.5577 419.367 15.0264 419.971 14.6469L418.908 12.9531ZM417.064 16.392C417.064 17.2597 417.298 18.0597 417.83 18.7172L419.385 17.4588C419.192 17.2203 419.064 16.8896 419.064 16.392H417.064ZM417.846 18.7356C418.322 19.2958 418.959 19.7456 419.708 20.1082L420.579 18.3078C420.006 18.0304 419.619 17.7335 419.369 17.4404L417.846 18.7356ZM419.743 20.1242C420.528 20.4678 421.976 20.8589 423.992 21.3044L424.423 19.3516C422.386 18.9011 421.124 18.5456 420.544 18.2918L419.743 20.1242ZM423.994 21.3049C424.665 21.4516 425.325 21.6088 425.974 21.7763L426.473 19.8397C425.8 19.6659 425.116 19.503 424.421 19.3511L423.994 21.3049ZM426.01 21.7849C426.645 21.9239 427.234 22.1011 427.778 22.3148L428.509 20.4532C427.858 20.1976 427.167 19.9908 426.437 19.8311L426.01 21.7849ZM427.818 22.3294C428.374 22.5212 428.886 22.7591 429.357 23.0415L430.386 21.3265C429.79 20.9689 429.15 20.6734 428.469 20.4386L427.818 22.3294ZM429.397 23.0645C429.851 23.3088 430.222 23.6064 430.52 23.9548L432.039 22.6532C431.569 22.1056 431.001 21.6566 430.346 21.3035L429.397 23.0645ZM430.555 23.9927C430.857 24.3107 431.096 24.6999 431.266 25.1763L433.149 24.5037C432.893 23.7854 432.513 23.1507 432.005 22.6153L430.555 23.9927ZM431.281 25.2173C431.455 25.6432 431.56 26.2013 431.56 26.92H433.56C433.56 26.0173 433.429 25.1888 433.134 24.4627L431.281 25.2173ZM436.944 33H435.944V34H436.944V33ZM436.944 10.984V9.984H435.944V10.984H436.944ZM439.92 10.984H440.92V9.984H439.92V10.984ZM439.92 33V34H440.92V33H439.92ZM437.944 33V10.984H435.944V33H437.944ZM436.944 11.984H439.92V9.984H436.944V11.984ZM438.92 10.984V33H440.92V10.984H438.92ZM439.92 32H436.944V34H439.92V32ZM447.355 13.608L448.066 14.3112L448.07 14.3073L447.355 13.608ZM461.371 11.912L460.89 12.7885L460.899 12.7937L461.371 11.912ZM464.891 15.848L465.171 16.8079L466.283 16.4832L465.8 15.431L464.891 15.848ZM462.043 16.68L461.149 17.1272L461.522 17.874L462.323 17.6399L462.043 16.68ZM459.451 13.96L458.983 14.8438L458.99 14.8475L459.451 13.96ZM449.531 15.4L448.778 14.7415L448.778 14.7415L449.531 15.4ZM449.659 28.488L448.909 29.1493L448.913 29.1542L449.659 28.488ZM459.579 30.248L459.905 31.1934L459.914 31.1901L459.579 30.248ZM462.619 28.456L463.316 29.173L463.619 28.8785V28.456H462.619ZM462.619 24.488H463.619V23.488H462.619V24.488ZM456.027 24.488H455.027V25.488H456.027V24.488ZM456.027 21.992V20.992H455.027V21.992H456.027ZM465.371 21.992H466.371V20.992H465.371V21.992ZM465.371 29.576L466.084 30.2767L466.371 29.9849V29.576H465.371ZM461.051 32.36L461.406 33.2949L461.412 33.2924L461.051 32.36ZM449.627 31.944L450.11 31.0683L450.11 31.0683L449.627 31.944ZM445.787 27.976L444.895 28.4276L444.899 28.4363L445.787 27.976ZM445.475 21.896C445.475 18.4899 446.384 16.0123 448.066 14.3112L446.644 12.9048C444.486 15.0864 443.475 18.1341 443.475 21.896H445.475ZM448.07 14.3073C449.756 12.5839 452.158 11.664 455.419 11.664V9.664C451.768 9.664 448.794 10.7068 446.64 12.9087L448.07 14.3073ZM455.419 11.664C457.771 11.664 459.571 12.0644 460.89 12.7885L461.852 11.0355C460.141 10.0956 457.974 9.664 455.419 9.664V11.664ZM460.899 12.7937C462.191 13.4853 463.226 14.6168 463.982 16.265L465.8 15.431C464.892 13.4525 463.58 11.9601 461.843 11.0303L460.899 12.7937ZM464.611 14.8881L461.763 15.7201L462.323 17.6399L465.171 16.8079L464.611 14.8881ZM462.937 16.2328C462.235 14.8278 461.229 13.7562 459.912 13.0725L458.99 14.8475C459.892 15.3158 460.614 16.0576 461.149 17.1272L462.937 16.2328ZM459.919 13.0762C458.647 12.4027 457.108 12.096 455.355 12.096V14.096C456.887 14.096 458.079 14.3653 458.983 14.8438L459.919 13.0762ZM455.355 12.096C452.604 12.096 450.357 12.9372 448.778 14.7415L450.284 16.0585C451.393 14.7908 453.029 14.096 455.355 14.096V12.096ZM448.778 14.7415C447.224 16.5176 446.515 18.9489 446.515 21.896H448.515C448.515 19.2538 449.15 17.3544 450.284 16.0585L448.778 14.7415ZM446.515 21.896C446.515 24.842 447.277 27.2984 448.909 29.1493L450.409 27.8267C449.182 26.435 448.515 24.4967 448.515 21.896H446.515ZM448.913 29.1542C450.566 31.0039 452.831 31.888 455.579 31.888V29.888C453.292 29.888 451.611 29.1721 450.405 27.8218L448.913 29.1542ZM455.579 31.888C457.109 31.888 458.554 31.6594 459.905 31.1934L459.253 29.3026C458.13 29.6899 456.908 29.888 455.579 29.888V31.888ZM459.914 31.1901C461.276 30.7055 462.423 30.0414 463.316 29.173L461.922 27.739C461.279 28.364 460.4 28.8945 459.244 29.3059L459.914 31.1901ZM463.619 28.456V24.488H461.619V28.456H463.619ZM462.619 23.488H456.027V25.488H462.619V23.488ZM457.027 24.488V21.992H455.027V24.488H457.027ZM456.027 22.992H465.371V20.992H456.027V22.992ZM464.371 21.992V29.576H466.371V21.992H464.371ZM464.658 28.8753C463.593 29.9595 462.276 30.8127 460.69 31.4276L461.412 33.2924C463.239 32.5846 464.803 31.5819 466.084 30.2767L464.658 28.8753ZM460.696 31.4251C459.134 32.0184 457.431 32.32 455.579 32.32V34.32C457.652 34.32 459.598 33.9816 461.406 33.2949L460.696 31.4251ZM455.579 32.32C453.408 32.32 451.598 31.8884 450.11 31.0683L449.144 32.8197C450.984 33.8342 453.142 34.32 455.579 34.32V32.32ZM450.11 31.0683C448.623 30.2488 447.482 29.0728 446.675 27.5157L444.899 28.4363C445.884 30.3352 447.303 31.8046 449.144 32.8197L450.11 31.0683ZM446.679 27.5244C445.888 25.9618 445.475 24.0956 445.475 21.896H443.475C443.475 24.3471 443.936 26.5342 444.895 28.4276L446.679 27.5244ZM484.646 33L483.799 33.5318L484.093 34H484.646V33ZM472.87 14.248L473.717 13.7162L471.872 14.3117L472.87 14.248ZM472.966 15.752L473.966 15.7276L473.965 15.7079L473.964 15.6883L472.966 15.752ZM473.03 18.376H474.03V18.3638L474.03 18.3516L473.03 18.376ZM473.03 33V34H474.03V33H473.03ZM470.374 33H469.374V34H470.374V33ZM470.374 10.984V9.984H469.374V10.984H470.374ZM473.83 10.984L474.676 10.4507L474.382 9.984H473.83V10.984ZM485.734 29.864L484.888 30.3973L486.932 33.639L486.733 29.812L485.734 29.864ZM485.574 10.984V9.984H484.574V10.984H485.574ZM488.262 10.984H489.262V9.984H488.262V10.984ZM488.262 33V34H489.262V33H488.262ZM485.493 32.4682L473.717 13.7162L472.023 14.7798L483.799 33.5318L485.493 32.4682ZM471.872 14.3117L471.968 15.8157L473.964 15.6883L473.868 14.1843L471.872 14.3117ZM471.966 15.7764L472.03 18.4004L474.03 18.3516L473.966 15.7276L471.966 15.7764ZM472.03 18.376V33H474.03V18.376H472.03ZM473.03 32H470.374V34H473.03V32ZM471.374 33V10.984H469.374V33H471.374ZM470.374 11.984H473.83V9.984H470.374V11.984ZM472.984 11.5173L484.888 30.3973L486.58 29.3307L474.676 10.4507L472.984 11.5173ZM486.733 29.812C486.626 27.7655 486.574 26.3053 486.574 25.416H484.574C484.574 26.3614 484.629 27.8665 484.735 29.916L486.733 29.812ZM486.574 25.416V10.984H484.574V25.416H486.574ZM485.574 11.984H488.262V9.984H485.574V11.984ZM487.262 10.984V33H489.262V10.984H487.262ZM488.262 32H484.646V34H488.262V32Z" fill="#84DCC6"/>
<path d="M388.224 66.72L387.339 66.2551L387.334 66.2639L388.224 66.72ZM384.48 70.656L384.964 71.5313L384.972 71.5263L384.48 70.656ZM370.624 72H369.624V73H370.624V72ZM370.624 49.984V48.984H369.624V49.984H370.624ZM386.528 52.8L385.848 53.5336L385.853 53.5375L386.528 52.8ZM384.32 54.528L383.629 55.2504L383.634 55.2553L384.32 54.528ZM373.6 52.384V51.384H372.6V52.384H373.6ZM373.6 69.6H372.6V70.6H373.6V69.6ZM382.752 68.544L382.257 67.6748L382.251 67.6786L382.752 68.544ZM385.6 65.504L386.494 65.9512L386.497 65.9455L385.6 65.504ZM388.568 60.768C388.568 62.8954 388.147 64.7148 387.339 66.2552L389.109 67.1848C390.093 65.3119 390.568 63.1632 390.568 60.768H388.568ZM387.334 66.2639C386.546 67.802 385.434 68.9675 383.988 69.7857L384.972 71.5263C386.769 70.5098 388.153 69.0513 389.114 67.1761L387.334 66.2639ZM383.996 69.7808C382.544 70.5832 380.838 71 378.848 71V73C381.125 73 383.173 72.5208 384.964 71.5312L383.996 69.7808ZM378.848 71H370.624V73H378.848V71ZM371.624 72V49.984H369.624V72H371.624ZM370.624 50.984H377.92V48.984H370.624V50.984ZM377.92 50.984C381.468 50.984 384.063 51.8793 385.848 53.5336L387.208 52.0664C384.94 49.966 381.796 48.984 377.92 48.984V50.984ZM385.853 53.5375C387.622 55.1575 388.568 57.5152 388.568 60.768H390.568C390.568 57.1088 389.488 54.1545 387.203 52.0625L385.853 53.5375ZM387.592 60.768C387.592 57.8519 386.778 55.4728 385.006 53.8007L383.634 55.2553C384.891 56.4418 385.592 58.2228 385.592 60.768H387.592ZM385.011 53.8056C383.273 52.1417 380.835 51.384 377.856 51.384V53.384C380.509 53.384 382.38 54.0556 383.629 55.2504L385.011 53.8056ZM377.856 51.384H373.6V53.384H377.856V51.384ZM372.6 52.384V69.6H374.6V52.384H372.6ZM373.6 70.6H378.528V68.6H373.6V70.6ZM378.528 70.6C380.279 70.6 381.865 70.2132 383.253 69.4094L382.251 67.6786C381.207 68.2828 379.977 68.6 378.528 68.6V70.6ZM383.247 69.4132C384.663 68.6073 385.748 67.4438 386.494 65.9512L384.706 65.0568C384.129 66.2096 383.316 67.0727 382.257 67.6748L383.247 69.4132ZM386.497 65.9455C387.239 64.4382 387.592 62.7026 387.592 60.768H385.592C385.592 62.46 385.284 63.8818 384.703 65.0625L386.497 65.9455ZM393.718 72H392.718V73H393.718V72ZM393.718 49.984V48.984H392.718V49.984H393.718ZM410.422 49.984H411.422V48.984H410.422V49.984ZM410.422 52.416V53.416H411.422V52.416H410.422ZM396.694 52.416V51.416H395.694V52.416H396.694ZM396.694 59.488H395.694V60.488H396.694V59.488ZM409.494 59.488H410.494V58.488H409.494V59.488ZM409.494 61.888V62.888H410.494V61.888H409.494ZM396.694 61.888V60.888H395.694V61.888H396.694ZM396.694 69.568H395.694V70.568H396.694V69.568ZM411.062 69.568H412.062V68.568H411.062V69.568ZM411.062 72V73H412.062V72H411.062ZM394.718 72V49.984H392.718V72H394.718ZM393.718 50.984H410.422V48.984H393.718V50.984ZM409.422 49.984V52.416H411.422V49.984H409.422ZM410.422 51.416H396.694V53.416H410.422V51.416ZM395.694 52.416V59.488H397.694V52.416H395.694ZM396.694 60.488H409.494V58.488H396.694V60.488ZM408.494 59.488V61.888H410.494V59.488H408.494ZM409.494 60.888H396.694V62.888H409.494V60.888ZM395.694 61.888V69.568H397.694V61.888H395.694ZM396.694 70.568H411.062V68.568H396.694V70.568ZM410.062 69.568V72H412.062V69.568H410.062ZM411.062 71H393.718V73H411.062V71ZM429.878 70.656L430.453 71.4742L430.455 71.4727L429.878 70.656ZM413.846 66.72L413.65 65.7394L412.642 65.941L412.871 66.9428L413.846 66.72ZM416.726 66.144L417.695 65.8941L417.458 64.9778L416.53 65.1634L416.726 66.144ZM418.87 69.056L418.376 69.9253L418.376 69.9253L418.87 69.056ZM427.734 68.992L428.269 69.8371L428.269 69.8371L427.734 68.992ZM427.446 63.232L426.999 64.1264L427.012 64.1329L427.025 64.139L427.446 63.232ZM425.302 62.496L425.048 63.4631L425.063 63.467L425.077 63.4704L425.302 62.496ZM422.582 61.856L422.368 62.8328L422.374 62.8341L422.582 61.856ZM418.614 60.704L418.202 61.6151L418.211 61.6192L418.22 61.6231L418.614 60.704ZM416.47 59.392L415.795 60.1292L415.802 60.136L415.81 60.1427L416.47 59.392ZM415.286 57.728L414.369 58.1256L414.369 58.1256L415.286 57.728ZM417.014 51.2L417.589 52.0187L417.591 52.017L417.014 51.2ZM428.982 50.816L429.484 49.9512L429.484 49.9512L428.982 50.816ZM431.766 54.72L431.938 55.7052L433.038 55.5138L432.727 54.4409L431.766 54.72ZM428.822 55.232L427.857 55.4951L428.097 56.3731L428.994 56.2172L428.822 55.232ZM426.966 52.704L426.455 53.5633L426.467 53.5704L426.479 53.5772L426.966 52.704ZM419.158 52.8L419.69 53.6469L419.695 53.6437L419.158 52.8ZM418.326 57.088L417.549 57.7172L417.557 57.7265L417.564 57.7356L418.326 57.088ZM419.862 58.208L419.427 59.1082L419.444 59.1165L419.461 59.1242L419.862 58.208ZM423.926 59.328L423.71 60.3044L423.713 60.3049L423.926 59.328ZM425.942 59.808L425.692 60.7763L425.71 60.7809L425.729 60.7849L425.942 59.808ZM427.862 60.384L427.497 61.3148L427.516 61.3225L427.536 61.3294L427.862 60.384ZM429.59 61.184L429.076 62.0415L429.096 62.0535L429.116 62.0645L429.59 61.184ZM430.998 62.304L430.239 62.9548L430.256 62.9742L430.273 62.9927L430.998 62.304ZM431.926 63.84L430.985 64.1763L430.992 64.197L431 64.2173L431.926 63.84ZM431.278 65.92C431.278 67.6352 430.625 68.9036 429.301 69.8393L430.455 71.4727C432.331 70.1471 433.278 68.2581 433.278 65.92H431.278ZM429.303 69.8378C427.957 70.7836 425.96 71.32 423.19 71.32V73.32C426.18 73.32 428.642 72.747 430.453 71.4742L429.303 69.8378ZM423.19 71.32C420.602 71.32 418.681 70.8681 417.336 70.0622C416.027 69.2773 415.191 68.1145 414.821 66.4972L412.871 66.9428C413.355 69.0588 414.503 70.696 416.308 71.7778C418.078 72.8386 420.402 73.32 423.19 73.32V71.32ZM414.042 67.7006L416.922 67.1246L416.53 65.1634L413.65 65.7394L414.042 67.7006ZM415.758 66.3939C416.16 67.9521 417.03 69.1599 418.376 69.9253L419.365 68.1867C418.535 67.7148 417.975 66.9812 417.695 65.8941L415.758 66.3939ZM418.376 69.9253C419.67 70.6612 421.335 70.984 423.286 70.984V68.984C421.526 68.984 420.246 68.6881 419.365 68.1867L418.376 69.9253ZM423.286 70.984C425.299 70.984 426.998 70.641 428.269 69.8371L427.2 68.1469C426.38 68.6656 425.113 68.984 423.286 68.984V70.984ZM428.269 69.8371C429.616 68.9849 430.302 67.6884 430.302 66.08H428.302C428.302 67.0316 427.943 67.6765 427.2 68.1469L428.269 69.8371ZM430.302 66.08C430.302 65.2119 430.11 64.4029 429.636 63.7388L428.009 64.9012C428.174 65.1331 428.302 65.4975 428.302 66.08H430.302ZM429.636 63.7388C429.197 63.1248 428.591 62.6608 427.867 62.325L427.025 64.139C427.496 64.3578 427.807 64.6192 428.009 64.9012L429.636 63.7388ZM427.893 62.3376C427.209 61.9954 426.416 61.7267 425.527 61.5216L425.077 63.4704C425.853 63.6493 426.489 63.8713 426.999 64.1264L427.893 62.3376ZM425.557 61.5289C424.728 61.3108 423.805 61.0938 422.79 60.8779L422.374 62.8341C423.365 63.0448 424.255 63.2546 425.048 63.4631L425.557 61.5289ZM422.797 60.8793C421.067 60.4996 419.817 60.1315 419.008 59.7849L418.22 61.6231C419.204 62.0445 420.599 62.4444 422.368 62.8327L422.797 60.8793ZM419.026 59.7929C418.189 59.414 417.567 59.0254 417.131 58.6413L415.81 60.1427C416.44 60.6973 417.248 61.1834 418.202 61.6151L419.026 59.7929ZM417.146 58.6548C416.738 58.2809 416.426 57.842 416.204 57.3304L414.369 58.1256C414.702 58.894 415.179 59.5645 415.795 60.1292L417.146 58.6548ZM416.204 57.3304C415.989 56.8346 415.87 56.2479 415.87 55.552H413.87C413.87 56.4775 414.029 57.3414 414.369 58.1256L416.204 57.3304ZM415.87 55.552C415.87 53.9459 416.452 52.8157 417.589 52.0187L416.44 50.3813C414.718 51.5896 413.87 53.3608 413.87 55.552H415.87ZM417.591 52.017C418.806 51.159 420.641 50.664 423.222 50.664V48.664C420.428 48.664 418.123 49.193 416.438 50.383L417.591 52.017ZM423.222 50.664C425.665 50.664 427.379 51.0413 428.48 51.6808L429.484 49.9512C427.94 49.0547 425.814 48.664 423.222 48.664V50.664ZM428.48 51.6808C429.528 52.2895 430.326 53.3468 430.806 54.9991L432.727 54.4409C432.14 52.4239 431.081 50.8785 429.484 49.9512L428.48 51.6808ZM431.595 53.7348L428.651 54.2468L428.994 56.2172L431.938 55.7052L431.595 53.7348ZM429.787 54.9689C429.408 53.5807 428.643 52.4946 427.454 51.8308L426.479 53.5772C427.124 53.9374 427.596 54.5366 427.857 55.4951L429.787 54.9689ZM427.478 51.8447C426.364 51.1817 424.9 50.904 423.19 50.904V52.904C424.723 52.904 425.777 53.1597 426.455 53.5633L427.478 51.8447ZM423.19 50.904C421.35 50.904 419.788 51.2141 418.621 51.9563L419.695 53.6437C420.406 53.1913 421.531 52.904 423.19 52.904V50.904ZM418.626 51.9531C417.396 52.7256 416.782 53.9223 416.782 55.392H418.782C418.782 54.5577 419.086 54.0264 419.69 53.6469L418.626 51.9531ZM416.782 55.392C416.782 56.2597 417.017 57.0597 417.549 57.7172L419.103 56.4588C418.91 56.2203 418.782 55.8896 418.782 55.392H416.782ZM417.564 57.7356C418.04 58.2958 418.677 58.7456 419.427 59.1082L420.298 57.3078C419.724 57.0304 419.337 56.7335 419.088 56.4404L417.564 57.7356ZM419.461 59.1242C420.247 59.4678 421.695 59.8589 423.71 60.3044L424.142 58.3516C422.104 57.9011 420.843 57.5456 420.263 57.2918L419.461 59.1242ZM423.713 60.3049C424.383 60.4516 425.043 60.6088 425.692 60.7763L426.192 58.8397C425.519 58.6659 424.834 58.503 424.14 58.3511L423.713 60.3049ZM425.729 60.7849C426.364 60.9239 426.953 61.1011 427.497 61.3148L428.228 59.4532C427.577 59.1976 426.886 58.9908 426.156 58.8311L425.729 60.7849ZM427.536 61.3294C428.093 61.5212 428.605 61.7591 429.076 62.0415L430.105 60.3265C429.509 59.9689 428.869 59.6734 428.188 59.4386L427.536 61.3294ZM429.116 62.0645C429.57 62.3088 429.94 62.6064 430.239 62.9548L431.758 61.6532C431.288 61.1056 430.72 60.6566 430.064 60.3035L429.116 62.0645ZM430.273 62.9927C430.575 63.3107 430.814 63.6999 430.985 64.1763L432.868 63.5037C432.611 62.7854 432.232 62.1507 431.723 61.6153L430.273 62.9927ZM431 64.2173C431.174 64.6432 431.278 65.2013 431.278 65.92H433.278C433.278 65.0173 433.148 64.1888 432.852 63.4627L431 64.2173ZM436.663 72H435.663V73H436.663V72ZM436.663 49.984V48.984H435.663V49.984H436.663ZM439.639 49.984H440.639V48.984H439.639V49.984ZM439.639 72V73H440.639V72H439.639ZM437.663 72V49.984H435.663V72H437.663ZM436.663 50.984H439.639V48.984H436.663V50.984ZM438.639 49.984V72H440.639V49.984H438.639ZM439.639 71H436.663V73H439.639V71ZM447.074 52.608L447.785 53.3112L447.789 53.3073L447.074 52.608ZM461.09 50.912L460.608 51.7885L460.618 51.7937L461.09 50.912ZM464.61 54.848L464.89 55.8079L466.001 55.4832L465.519 54.431L464.61 54.848ZM461.762 55.68L460.867 56.1272L461.241 56.874L462.042 56.6399L461.762 55.68ZM459.17 52.96L458.702 53.8438L458.709 53.8475L459.17 52.96ZM449.25 54.4L448.497 53.7415L448.497 53.7415L449.25 54.4ZM449.378 67.488L448.628 68.1493L448.632 68.1542L449.378 67.488ZM459.298 69.248L459.624 70.1934L459.633 70.1901L459.298 69.248ZM462.338 67.456L463.035 68.173L463.338 67.8785V67.456H462.338ZM462.338 63.488H463.338V62.488H462.338V63.488ZM455.746 63.488H454.746V64.488H455.746V63.488ZM455.746 60.992V59.992H454.746V60.992H455.746ZM465.09 60.992H466.09V59.992H465.09V60.992ZM465.09 68.576L465.803 69.2767L466.09 68.9849V68.576H465.09ZM460.77 71.36L461.125 72.2949L461.131 72.2924L460.77 71.36ZM449.346 70.944L449.829 70.0683L449.829 70.0683L449.346 70.944ZM445.506 66.976L444.613 67.4276L444.618 67.4363L445.506 66.976ZM445.194 60.896C445.194 57.4899 446.102 55.0123 447.785 53.3112L446.363 51.9048C444.205 54.0864 443.194 57.1341 443.194 60.896H445.194ZM447.789 53.3073C449.475 51.5839 451.877 50.664 455.138 50.664V48.664C451.486 48.664 448.513 49.7068 446.359 51.9087L447.789 53.3073ZM455.138 50.664C457.489 50.664 459.29 51.0644 460.608 51.7885L461.571 50.0355C459.86 49.0956 457.693 48.664 455.138 48.664V50.664ZM460.618 51.7937C461.91 52.4853 462.945 53.6168 463.701 55.265L465.519 54.431C464.611 52.4525 463.299 50.9601 461.562 50.0303L460.618 51.7937ZM464.329 53.8881L461.481 54.7201L462.042 56.6399L464.89 55.8079L464.329 53.8881ZM462.656 55.2328C461.954 53.8278 460.947 52.7562 459.631 52.0725L458.709 53.8475C459.611 54.3158 460.333 55.0576 460.867 56.1272L462.656 55.2328ZM459.638 52.0762C458.365 51.4027 456.827 51.096 455.074 51.096V53.096C456.606 53.096 457.798 53.3653 458.702 53.8438L459.638 52.0762ZM455.074 51.096C452.323 51.096 450.076 51.9372 448.497 53.7415L450.002 55.0585C451.112 53.7908 452.747 53.096 455.074 53.096V51.096ZM448.497 53.7415C446.943 55.5176 446.234 57.9489 446.234 60.896H448.234C448.234 58.2538 448.868 56.3544 450.002 55.0585L448.497 53.7415ZM446.234 60.896C446.234 63.842 446.996 66.2984 448.628 68.1493L450.128 66.8267C448.901 65.435 448.234 63.4967 448.234 60.896H446.234ZM448.632 68.1542C450.284 70.0039 452.55 70.888 455.298 70.888V68.888C453.011 68.888 451.33 68.1721 450.124 66.8218L448.632 68.1542ZM455.298 70.888C456.828 70.888 458.272 70.6594 459.624 70.1934L458.972 68.3026C457.849 68.6899 456.626 68.888 455.298 68.888V70.888ZM459.633 70.1901C460.995 69.7055 462.142 69.0414 463.035 68.173L461.641 66.739C460.998 67.364 460.118 67.8945 458.962 68.3059L459.633 70.1901ZM463.338 67.456V63.488H461.338V67.456H463.338ZM462.338 62.488H455.746V64.488H462.338V62.488ZM456.746 63.488V60.992H454.746V63.488H456.746ZM455.746 61.992H465.09V59.992H455.746V61.992ZM464.09 60.992V68.576H466.09V60.992H464.09ZM464.376 67.8753C463.312 68.9595 461.995 69.8127 460.408 70.4276L461.131 72.2924C462.958 71.5846 464.521 70.5819 465.803 69.2767L464.376 67.8753ZM460.415 70.4251C458.852 71.0184 457.15 71.32 455.298 71.32V73.32C457.371 73.32 459.316 72.9816 461.125 72.2949L460.415 70.4251ZM455.298 71.32C453.127 71.32 451.316 70.8884 449.829 70.0683L448.863 71.8197C450.703 72.8342 452.861 73.32 455.298 73.32V71.32ZM449.829 70.0683C448.342 69.2488 447.201 68.0728 446.394 66.5157L444.618 67.4363C445.603 69.3352 447.021 70.8046 448.863 71.8197L449.829 70.0683ZM446.398 66.5244C445.607 64.9618 445.194 63.0956 445.194 60.896H443.194C443.194 63.3471 443.655 65.5342 444.614 67.4276L446.398 66.5244ZM484.365 72L483.518 72.5318L483.812 73H484.365V72ZM472.589 53.248L473.436 52.7162L471.591 53.3117L472.589 53.248ZM472.685 54.752L473.684 54.7276L473.684 54.7079L473.683 54.6883L472.685 54.752ZM472.749 57.376H473.749V57.3638L473.748 57.3516L472.749 57.376ZM472.749 72V73H473.749V72H472.749ZM470.093 72H469.093V73H470.093V72ZM470.093 49.984V48.984H469.093V49.984H470.093ZM473.549 49.984L474.395 49.4507L474.1 48.984H473.549V49.984ZM485.453 68.864L484.607 69.3973L486.651 72.639L486.451 68.812L485.453 68.864ZM485.293 49.984V48.984H484.293V49.984H485.293ZM487.981 49.984H488.981V48.984H487.981V49.984ZM487.981 72V73H488.981V72H487.981ZM485.212 71.4682L473.436 52.7162L471.742 53.7798L483.518 72.5318L485.212 71.4682ZM471.591 53.3117L471.687 54.8157L473.683 54.6883L473.587 53.1843L471.591 53.3117ZM471.685 54.7764L471.749 57.4004L473.748 57.3516L473.684 54.7276L471.685 54.7764ZM471.749 57.376V72H473.749V57.376H471.749ZM472.749 71H470.093V73H472.749V71ZM471.093 72V49.984H469.093V72H471.093ZM470.093 50.984H473.549V48.984H470.093V50.984ZM472.703 50.5173L484.607 69.3973L486.299 68.3307L474.395 49.4507L472.703 50.5173ZM486.451 68.812C486.345 66.7655 486.293 65.3053 486.293 64.416H484.293C484.293 65.3614 484.347 66.8665 484.454 68.916L486.451 68.812ZM486.293 64.416V49.984H484.293V64.416H486.293ZM485.293 50.984H487.981V48.984H485.293V50.984ZM486.981 49.984V72H488.981V49.984H486.981ZM487.981 71H484.365V73H487.981V71ZM511.982 52.416V51.416H510.982V52.416H511.982ZM511.982 72V73H512.982V72H511.982ZM509.006 72H508.006V73H509.006V72ZM509.006 52.416H510.006V51.416H509.006V52.416ZM501.454 52.416H500.454V53.416H501.454V52.416ZM501.454 49.984V48.984H500.454V49.984H501.454ZM519.534 49.984H520.534V48.984H519.534V49.984ZM519.534 52.416V53.416H520.534V52.416H519.534ZM510.982 52.416V72H512.982V52.416H510.982ZM511.982 71H509.006V73H511.982V71ZM510.006 72V52.416H508.006V72H510.006ZM509.006 51.416H501.454V53.416H509.006V51.416ZM502.454 52.416V49.984H500.454V52.416H502.454ZM501.454 50.984H519.534V48.984H501.454V50.984ZM518.534 49.984V52.416H520.534V49.984H518.534ZM519.534 51.416H511.982V53.416H519.534V51.416ZM537.785 72H536.785V73H537.785V72ZM537.785 61.792H538.785V60.792H537.785V61.792ZM525.881 61.792V60.792H524.881V61.792H525.881ZM525.881 72V73H526.881V72H525.881ZM522.905 72H521.905V73H522.905V72ZM522.905 49.984V48.984H521.905V49.984H522.905ZM525.881 49.984H526.881V48.984H525.881V49.984ZM525.881 59.296H524.881V60.296H525.881V59.296ZM537.785 59.296V60.296H538.785V59.296H537.785ZM537.785 49.984V48.984H536.785V49.984H537.785ZM540.793 49.984H541.793V48.984H540.793V49.984ZM540.793 72V73H541.793V72H540.793ZM538.785 72V61.792H536.785V72H538.785ZM537.785 60.792H525.881V62.792H537.785V60.792ZM524.881 61.792V72H526.881V61.792H524.881ZM525.881 71H522.905V73H525.881V71ZM523.905 72V49.984H521.905V72H523.905ZM522.905 50.984H525.881V48.984H522.905V50.984ZM524.881 49.984V59.296H526.881V49.984H524.881ZM525.881 60.296H537.785V58.296H525.881V60.296ZM538.785 59.296V49.984H536.785V59.296H538.785ZM537.785 50.984H540.793V48.984H537.785V50.984ZM539.793 49.984V72H541.793V49.984H539.793ZM540.793 71H537.785V73H540.793V71ZM546.319 72H545.319V73H546.319V72ZM546.319 49.984V48.984H545.319V49.984H546.319ZM549.295 49.984H550.295V48.984H549.295V49.984ZM549.295 72V73H550.295V72H549.295ZM547.319 72V49.984H545.319V72H547.319ZM546.319 50.984H549.295V48.984H546.319V50.984ZM548.295 49.984V72H550.295V49.984H548.295ZM549.295 71H546.319V73H549.295V71ZM569.146 72L568.299 72.5318L568.593 73H569.146V72ZM557.37 53.248L558.217 52.7162L556.372 53.3117L557.37 53.248ZM557.466 54.752L558.466 54.7276L558.465 54.7079L558.464 54.6883L557.466 54.752ZM557.53 57.376H558.53V57.3638L558.53 57.3516L557.53 57.376ZM557.53 72V73H558.53V72H557.53ZM554.874 72H553.874V73H554.874V72ZM554.874 49.984V48.984H553.874V49.984H554.874ZM558.33 49.984L559.176 49.4507L558.882 48.984H558.33V49.984ZM570.234 68.864L569.388 69.3973L571.432 72.639L571.233 68.812L570.234 68.864ZM570.074 49.984V48.984H569.074V49.984H570.074ZM572.762 49.984H573.762V48.984H572.762V49.984ZM572.762 72V73H573.762V72H572.762ZM569.993 71.4682L558.217 52.7162L556.523 53.7798L568.299 72.5318L569.993 71.4682ZM556.372 53.3117L556.468 54.8157L558.464 54.6883L558.368 53.1843L556.372 53.3117ZM556.466 54.7764L556.53 57.4004L558.53 57.3516L558.466 54.7276L556.466 54.7764ZM556.53 57.376V72H558.53V57.376H556.53ZM557.53 71H554.874V73H557.53V71ZM555.874 72V49.984H553.874V72H555.874ZM554.874 50.984H558.33V48.984H554.874V50.984ZM557.484 50.5173L569.388 69.3973L571.08 68.3307L559.176 49.4507L557.484 50.5173ZM571.233 68.812C571.126 66.7655 571.074 65.3053 571.074 64.416H569.074C569.074 65.3614 569.129 66.8665 569.235 68.916L571.233 68.812ZM571.074 64.416V49.984H569.074V64.416H571.074ZM570.074 50.984H572.762V48.984H570.074V50.984ZM571.762 49.984V72H573.762V49.984H571.762ZM572.762 71H569.146V73H572.762V71ZM592.624 72L591.854 72.6379L592.154 73H592.624V72ZM583.824 61.376L584.594 60.7381L583.984 60.0017L583.221 60.5781L583.824 61.376ZM580.944 63.552L580.341 62.7541L579.944 63.0542V63.552H580.944ZM580.944 72V73H581.944V72H580.944ZM577.968 72H576.968V73H577.968V72ZM577.968 49.984V48.984H576.968V49.984H577.968ZM580.944 49.984H581.944V48.984H580.944V49.984ZM580.944 61.024H579.944V63.5053L581.664 61.7174L580.944 61.024ZM591.568 49.984V48.984H591.142L590.847 49.2906L591.568 49.984ZM595.088 49.984L595.802 50.6839L597.468 48.984H595.088V49.984ZM585.712 59.552L584.998 58.8521L584.357 59.5054L584.951 60.2012L585.712 59.552ZM596.336 72V73H598.504L597.096 71.3508L596.336 72ZM593.394 71.3621L584.594 60.7381L583.054 62.0139L591.854 72.6379L593.394 71.3621ZM583.221 60.5781L580.341 62.7541L581.547 64.3499L584.427 62.1739L583.221 60.5781ZM579.944 63.552V72H581.944V63.552H579.944ZM580.944 71H577.968V73H580.944V71ZM578.968 72V49.984H576.968V72H578.968ZM577.968 50.984H580.944V48.984H577.968V50.984ZM579.944 49.984V61.024H581.944V49.984H579.944ZM581.664 61.7174L592.288 50.6774L590.847 49.2906L580.223 60.3306L581.664 61.7174ZM591.568 50.984H595.088V48.984H591.568V50.984ZM594.374 49.2841L584.998 58.8521L586.426 60.2519L595.802 50.6839L594.374 49.2841ZM584.951 60.2012L595.575 72.6492L597.096 71.3508L586.472 58.9028L584.951 60.2012ZM596.336 71H592.624V73H596.336V71ZM599.6 72H598.6V73H599.6V72ZM599.6 49.984V48.984H598.6V49.984H599.6ZM602.576 49.984H603.576V48.984H602.576V49.984ZM602.576 72V73H603.576V72H602.576ZM600.6 72V49.984H598.6V72H600.6ZM599.6 50.984H602.576V48.984H599.6V50.984ZM601.576 49.984V72H603.576V49.984H601.576ZM602.576 71H599.6V73H602.576V71ZM622.427 72L621.58 72.5318L621.874 73H622.427V72ZM610.651 53.248L611.498 52.7162L609.653 53.3117L610.651 53.248ZM610.747 54.752L611.747 54.7276L611.746 54.7079L611.745 54.6883L610.747 54.752ZM610.811 57.376H611.811V57.3638L611.811 57.3516L610.811 57.376ZM610.811 72V73H611.811V72H610.811ZM608.155 72H607.155V73H608.155V72ZM608.155 49.984V48.984H607.155V49.984H608.155ZM611.611 49.984L612.457 49.4507L612.163 48.984H611.611V49.984ZM623.515 68.864L622.669 69.3973L624.713 72.639L624.514 68.812L623.515 68.864ZM623.355 49.984V48.984H622.355V49.984H623.355ZM626.043 49.984H627.043V48.984H626.043V49.984ZM626.043 72V73H627.043V72H626.043ZM623.274 71.4682L611.498 52.7162L609.804 53.7798L621.58 72.5318L623.274 71.4682ZM609.653 53.3117L609.749 54.8157L611.745 54.6883L611.649 53.1843L609.653 53.3117ZM609.748 54.7764L609.812 57.4004L611.811 57.3516L611.747 54.7276L609.748 54.7764ZM609.811 57.376V72H611.811V57.376H609.811ZM610.811 71H608.155V73H610.811V71ZM609.155 72V49.984H607.155V72H609.155ZM608.155 50.984H611.611V48.984H608.155V50.984ZM610.765 50.5173L622.669 69.3973L624.361 68.3307L612.457 49.4507L610.765 50.5173ZM624.514 68.812C624.407 66.7655 624.355 65.3053 624.355 64.416H622.355C622.355 65.3614 622.41 66.8665 622.517 68.916L624.514 68.812ZM624.355 64.416V49.984H622.355V64.416H624.355ZM623.355 50.984H626.043V48.984H623.355V50.984ZM625.043 49.984V72H627.043V49.984H625.043ZM626.043 71H622.427V73H626.043V71ZM633.105 52.608L633.816 53.3112L633.82 53.3073L633.105 52.608ZM647.121 50.912L646.64 51.7885L646.649 51.7937L647.121 50.912ZM650.641 54.848L650.921 55.8079L652.033 55.4832L651.55 54.431L650.641 54.848ZM647.793 55.68L646.899 56.1272L647.272 56.874L648.073 56.6399L647.793 55.68ZM645.201 52.96L644.733 53.8438L644.74 53.8475L645.201 52.96ZM635.281 54.4L634.528 53.7415L634.528 53.7415L635.281 54.4ZM635.409 67.488L634.659 68.1493L634.663 68.1542L635.409 67.488ZM645.329 69.248L645.655 70.1934L645.664 70.1901L645.329 69.248ZM648.369 67.456L649.066 68.173L649.369 67.8785V67.456H648.369ZM648.369 63.488H649.369V62.488H648.369V63.488ZM641.777 63.488H640.777V64.488H641.777V63.488ZM641.777 60.992V59.992H640.777V60.992H641.777ZM651.121 60.992H652.121V59.992H651.121V60.992ZM651.121 68.576L651.834 69.2767L652.121 68.9849V68.576H651.121ZM646.801 71.36L647.156 72.2949L647.162 72.2924L646.801 71.36ZM635.377 70.944L635.86 70.0683L635.86 70.0683L635.377 70.944ZM631.537 66.976L630.645 67.4276L630.649 67.4363L631.537 66.976ZM631.225 60.896C631.225 57.4899 632.134 55.0123 633.816 53.3112L632.394 51.9048C630.236 54.0864 629.225 57.1341 629.225 60.896H631.225ZM633.82 53.3073C635.506 51.5839 637.908 50.664 641.169 50.664V48.664C637.518 48.664 634.544 49.7068 632.39 51.9087L633.82 53.3073ZM641.169 50.664C643.521 50.664 645.321 51.0644 646.64 51.7885L647.602 50.0355C645.891 49.0956 643.724 48.664 641.169 48.664V50.664ZM646.649 51.7937C647.941 52.4853 648.976 53.6168 649.732 55.265L651.55 54.431C650.642 52.4525 649.33 50.9601 647.593 50.0303L646.649 51.7937ZM650.361 53.8881L647.513 54.7201L648.073 56.6399L650.921 55.8079L650.361 53.8881ZM648.687 55.2328C647.985 53.8278 646.979 52.7562 645.662 52.0725L644.74 53.8475C645.642 54.3158 646.364 55.0576 646.899 56.1272L648.687 55.2328ZM645.669 52.0762C644.397 51.4027 642.858 51.096 641.105 51.096V53.096C642.637 53.096 643.829 53.3653 644.733 53.8438L645.669 52.0762ZM641.105 51.096C638.354 51.096 636.107 51.9372 634.528 53.7415L636.034 55.0585C637.143 53.7908 638.779 53.096 641.105 53.096V51.096ZM634.528 53.7415C632.974 55.5176 632.265 57.9489 632.265 60.896H634.265C634.265 58.2538 634.9 56.3544 636.034 55.0585L634.528 53.7415ZM632.265 60.896C632.265 63.842 633.027 66.2984 634.659 68.1493L636.159 66.8267C634.932 65.435 634.265 63.4967 634.265 60.896H632.265ZM634.663 68.1542C636.316 70.0039 638.581 70.888 641.329 70.888V68.888C639.042 68.888 637.361 68.1721 636.155 66.8218L634.663 68.1542ZM641.329 70.888C642.859 70.888 644.304 70.6594 645.655 70.1934L645.003 68.3026C643.88 68.6899 642.658 68.888 641.329 68.888V70.888ZM645.664 70.1901C647.026 69.7055 648.173 69.0414 649.066 68.173L647.672 66.739C647.029 67.364 646.15 67.8945 644.994 68.3059L645.664 70.1901ZM649.369 67.456V63.488H647.369V67.456H649.369ZM648.369 62.488H641.777V64.488H648.369V62.488ZM642.777 63.488V60.992H640.777V63.488H642.777ZM641.777 61.992H651.121V59.992H641.777V61.992ZM650.121 60.992V68.576H652.121V60.992H650.121ZM650.408 67.8753C649.343 68.9595 648.026 69.8127 646.44 70.4276L647.162 72.2924C648.989 71.5846 650.553 70.5819 651.834 69.2767L650.408 67.8753ZM646.446 70.4251C644.884 71.0184 643.181 71.32 641.329 71.32V73.32C643.402 73.32 645.348 72.9816 647.156 72.2949L646.446 70.4251ZM641.329 71.32C639.158 71.32 637.348 70.8884 635.86 70.0683L634.894 71.8197C636.734 72.8342 638.892 73.32 641.329 73.32V71.32ZM635.86 70.0683C634.373 69.2488 633.232 68.0728 632.425 66.5157L630.649 67.4363C631.634 69.3352 633.053 70.8046 634.894 71.8197L635.86 70.0683ZM632.429 66.5244C631.638 64.9618 631.225 63.0956 631.225 60.896H629.225C629.225 63.3471 629.686 65.5342 630.645 67.4276L632.429 66.5244Z" fill="#688CC1"/>
<path d="M319.688 110.328L319.246 111.225L319.246 111.225L319.688 110.328ZM316.552 107.48L315.686 107.979L315.691 107.988L315.696 107.997L316.552 107.48ZM315.464 88.984V87.984H314.464V88.984H315.464ZM318.44 88.984H319.44V87.984H318.44V88.984ZM319.976 107.32L320.69 106.62L320.69 106.62L319.976 107.32ZM329 107.288L329.7 108.002L329.7 108.002L329 107.288ZM330.664 88.984V87.984H329.664V88.984H330.664ZM333.64 88.984H334.64V87.984H333.64V88.984ZM332.488 107.352L331.627 106.844L331.624 106.848L332.488 107.352ZM329.288 110.296L328.846 109.399L328.841 109.402L329.288 110.296ZM324.424 110.32C322.732 110.32 321.31 110.012 320.13 109.431L319.246 111.225C320.754 111.967 322.489 112.32 324.424 112.32V110.32ZM320.13 109.431C318.951 108.851 318.052 108.031 317.408 106.963L315.696 107.997C316.545 109.404 317.737 110.483 319.246 111.225L320.13 109.431ZM317.418 106.981C316.796 105.9 316.464 104.586 316.464 103H314.464C314.464 104.87 314.857 106.542 315.686 107.979L317.418 106.981ZM316.464 103V88.984H314.464V103H316.464ZM315.464 89.984H318.44V87.984H315.464V89.984ZM317.44 88.984V102.744H319.44V88.984H317.44ZM317.44 102.744C317.44 104.912 317.995 106.727 319.262 108.02L320.69 106.62C319.909 105.822 319.44 104.587 319.44 102.744H317.44ZM319.262 108.02C320.527 109.312 322.291 109.888 324.392 109.888V107.888C322.653 107.888 321.473 107.419 320.69 106.62L319.262 108.02ZM324.392 109.888C326.556 109.888 328.374 109.302 329.7 108.002L328.3 106.574C327.45 107.407 326.196 107.888 324.392 107.888V109.888ZM329.7 108.002C331.058 106.67 331.664 104.798 331.664 102.552H329.664C329.664 104.445 329.16 105.73 328.3 106.574L329.7 108.002ZM331.664 102.552V88.984H329.664V102.552H331.664ZM330.664 89.984H333.64V87.984H330.664V89.984ZM332.64 88.984V102.712H334.64V88.984H332.64ZM332.64 102.712C332.64 104.359 332.288 105.723 331.627 106.844L333.349 107.86C334.224 106.378 334.64 104.649 334.64 102.712H332.64ZM331.624 106.848C330.981 107.951 330.065 108.799 328.846 109.399L329.73 111.193C331.285 110.428 332.502 109.313 333.352 107.856L331.624 106.848ZM328.841 109.402C327.643 110.001 326.181 110.32 324.424 110.32V112.32C326.422 112.32 328.203 111.957 329.735 111.19L328.841 109.402ZM353.47 111L352.646 111.567L352.944 112H353.47V111ZM346.846 101.368L347.67 100.801L346.854 99.6147L346.027 100.794L346.846 101.368ZM340.094 111V112H340.614L340.913 111.574L340.094 111ZM336.798 111L335.992 110.408L334.823 112H336.798V111ZM345.182 99.576L345.988 100.168L346.421 99.5771L345.989 98.9858L345.182 99.576ZM337.438 88.984V87.984H335.468L336.63 89.5742L337.438 88.984ZM340.734 88.984L341.55 88.4065L341.251 87.984H340.734V88.984ZM346.846 97.624L346.029 98.2015L346.857 99.3709L347.669 98.1913L346.846 97.624ZM352.798 88.984V87.984H352.272L351.974 88.4167L352.798 88.984ZM356.126 88.984L356.937 89.5692L358.081 87.984H356.126V88.984ZM348.574 99.448L347.763 98.8628L347.344 99.4429L347.758 100.026L348.574 99.448ZM356.766 111V112H358.701L357.581 110.422L356.766 111ZM354.294 110.433L347.67 100.801L346.022 101.935L352.646 111.567L354.294 110.433ZM346.027 100.794L339.275 110.426L340.913 111.574L347.665 101.942L346.027 100.794ZM340.094 110H336.798V112H340.094V110ZM337.604 111.592L345.988 100.168L344.376 98.9843L335.992 110.408L337.604 111.592ZM345.989 98.9858L338.245 88.3938L336.63 89.5742L344.374 100.166L345.989 98.9858ZM337.438 89.984H340.734V87.984H337.438V89.984ZM339.917 89.5615L346.029 98.2015L347.662 97.0465L341.55 88.4065L339.917 89.5615ZM347.669 98.1913L353.621 89.5513L351.974 88.4167L346.022 97.0567L347.669 98.1913ZM352.798 89.984H356.126V87.984H352.798V89.984ZM355.315 88.3988L347.763 98.8628L349.385 100.033L356.937 89.5692L355.315 88.3988ZM347.758 100.026L355.95 111.578L357.581 110.422L349.389 98.8695L347.758 100.026ZM356.766 110H353.47V112H356.766V110ZM387.818 105.72L386.932 105.255L386.928 105.264L387.818 105.72ZM384.074 109.656L384.557 110.531L384.566 110.526L384.074 109.656ZM370.218 111H369.218V112H370.218V111ZM370.218 88.984V87.984H369.218V88.984H370.218ZM386.122 91.8L385.442 92.5336L385.446 92.5375L386.122 91.8ZM383.914 93.528L383.222 94.2504L383.227 94.2553L383.914 93.528ZM373.194 91.384V90.384H372.194V91.384H373.194ZM373.194 108.6H372.194V109.6H373.194V108.6ZM382.346 107.544L381.851 106.675L381.845 106.679L382.346 107.544ZM385.194 104.504L386.088 104.951L386.091 104.946L385.194 104.504ZM388.162 99.768C388.162 101.895 387.741 103.715 386.932 105.255L388.703 106.185C389.686 104.312 390.162 102.163 390.162 99.768H388.162ZM386.928 105.264C386.14 106.802 385.027 107.968 383.581 108.786L384.566 110.526C386.363 109.51 387.747 108.051 388.708 106.176L386.928 105.264ZM383.59 108.781C382.138 109.583 380.432 110 378.442 110V112C380.718 112 382.767 111.521 384.557 110.531L383.59 108.781ZM378.442 110H370.218V112H378.442V110ZM371.218 111V88.984H369.218V111H371.218ZM370.218 89.984H377.514V87.984H370.218V89.984ZM377.514 89.984C381.062 89.984 383.656 90.8793 385.442 92.5336L386.801 91.0664C384.534 88.966 381.39 87.984 377.514 87.984V89.984ZM385.446 92.5375C387.215 94.1575 388.162 96.5152 388.162 99.768H390.162C390.162 96.1088 389.081 93.1545 386.797 91.0625L385.446 92.5375ZM387.186 99.768C387.186 96.8519 386.372 94.4728 384.6 92.8007L383.227 94.2553C384.485 95.4418 385.186 97.2228 385.186 99.768H387.186ZM384.605 92.8056C382.867 91.1417 380.428 90.384 377.45 90.384V92.384C380.103 92.384 381.974 93.0556 383.222 94.2504L384.605 92.8056ZM377.45 90.384H373.194V92.384H377.45V90.384ZM372.194 91.384V108.6H374.194V91.384H372.194ZM373.194 109.6H378.122V107.6H373.194V109.6ZM378.122 109.6C379.873 109.6 381.458 109.213 382.847 108.409L381.845 106.679C380.801 107.283 379.571 107.6 378.122 107.6V109.6ZM382.84 108.413C384.257 107.607 385.342 106.444 386.088 104.951L384.299 104.057C383.723 105.21 382.909 106.073 381.851 106.675L382.84 108.413ZM386.091 104.946C386.833 103.438 387.186 101.703 387.186 99.768H385.186C385.186 101.46 384.877 102.882 384.296 104.062L386.091 104.946ZM393.312 111H392.312V112H393.312V111ZM393.312 88.984V87.984H392.312V88.984H393.312ZM410.016 88.984H411.016V87.984H410.016V88.984ZM410.016 91.416V92.416H411.016V91.416H410.016ZM396.288 91.416V90.416H395.288V91.416H396.288ZM396.288 98.488H395.288V99.488H396.288V98.488ZM409.088 98.488H410.088V97.488H409.088V98.488ZM409.088 100.888V101.888H410.088V100.888H409.088ZM396.288 100.888V99.888H395.288V100.888H396.288ZM396.288 108.568H395.288V109.568H396.288V108.568ZM410.656 108.568H411.656V107.568H410.656V108.568ZM410.656 111V112H411.656V111H410.656ZM394.312 111V88.984H392.312V111H394.312ZM393.312 89.984H410.016V87.984H393.312V89.984ZM409.016 88.984V91.416H411.016V88.984H409.016ZM410.016 90.416H396.288V92.416H410.016V90.416ZM395.288 91.416V98.488H397.288V91.416H395.288ZM396.288 99.488H409.088V97.488H396.288V99.488ZM408.088 98.488V100.888H410.088V98.488H408.088ZM409.088 99.888H396.288V101.888H409.088V99.888ZM395.288 100.888V108.568H397.288V100.888H395.288ZM396.288 109.568H410.656V107.568H396.288V109.568ZM409.656 108.568V111H411.656V108.568H409.656ZM410.656 110H393.312V112H410.656V110ZM429.472 109.656L430.047 110.474L430.049 110.473L429.472 109.656ZM413.44 105.72L413.244 104.739L412.236 104.941L412.465 105.943L413.44 105.72ZM416.32 105.144L417.288 104.894L417.052 103.978L416.124 104.163L416.32 105.144ZM418.464 108.056L417.97 108.925L417.97 108.925L418.464 108.056ZM427.328 107.992L427.863 108.837L427.863 108.837L427.328 107.992ZM427.04 102.232L426.593 103.126L426.606 103.133L426.619 103.139L427.04 102.232ZM424.896 101.496L424.642 102.463L424.656 102.467L424.671 102.47L424.896 101.496ZM422.176 100.856L421.962 101.833L421.968 101.834L422.176 100.856ZM418.208 99.704L417.796 100.615L417.805 100.619L417.814 100.623L418.208 99.704ZM416.064 98.392L415.388 99.1292L415.396 99.136L415.403 99.1427L416.064 98.392ZM414.88 96.728L413.962 97.1256L413.962 97.1256L414.88 96.728ZM416.608 90.2L417.182 91.0187L417.185 91.017L416.608 90.2ZM428.576 89.816L429.078 88.9512L429.078 88.9512L428.576 89.816ZM431.36 93.72L431.531 94.7052L432.632 94.5138L432.32 93.4409L431.36 93.72ZM428.416 94.232L427.451 94.4951L427.691 95.3731L428.587 95.2172L428.416 94.232ZM426.56 91.704L426.049 92.5633L426.06 92.5704L426.073 92.5772L426.56 91.704ZM418.752 91.8L419.284 92.6469L419.289 92.6437L418.752 91.8ZM417.92 96.088L417.143 96.7172L417.15 96.7265L417.158 96.7356L417.92 96.088ZM419.456 97.208L419.02 98.1082L419.038 98.1165L419.055 98.1242L419.456 97.208ZM423.52 98.328L423.304 99.3044L423.306 99.3049L423.52 98.328ZM425.536 98.808L425.286 99.7763L425.304 99.7809L425.322 99.7849L425.536 98.808ZM427.456 99.384L427.09 100.315L427.11 100.322L427.13 100.329L427.456 99.384ZM429.184 100.184L428.67 101.041L428.689 101.053L428.71 101.064L429.184 100.184ZM430.592 101.304L429.833 101.955L429.849 101.974L429.867 101.993L430.592 101.304ZM431.52 102.84L430.578 103.176L430.586 103.197L430.594 103.217L431.52 102.84ZM430.872 104.92C430.872 106.635 430.219 107.904 428.895 108.839L430.049 110.473C431.925 109.147 432.872 107.258 432.872 104.92H430.872ZM428.897 108.838C427.551 109.784 425.554 110.32 422.784 110.32V112.32C425.774 112.32 428.236 111.747 430.047 110.474L428.897 108.838ZM422.784 110.32C420.196 110.32 418.275 109.868 416.93 109.062C415.62 108.277 414.785 107.115 414.415 105.497L412.465 105.943C412.949 108.059 414.097 109.696 415.902 110.778C417.672 111.839 419.996 112.32 422.784 112.32V110.32ZM413.636 106.701L416.516 106.125L416.124 104.163L413.244 104.739L413.636 106.701ZM415.352 105.394C415.754 106.952 416.624 108.16 417.97 108.925L418.958 107.187C418.128 106.715 417.569 105.981 417.288 104.894L415.352 105.394ZM417.97 108.925C419.264 109.661 420.928 109.984 422.88 109.984V107.984C421.12 107.984 419.84 107.688 418.958 107.187L417.97 108.925ZM422.88 109.984C424.893 109.984 426.592 109.641 427.863 108.837L426.793 107.147C425.973 107.666 424.707 107.984 422.88 107.984V109.984ZM427.863 108.837C429.21 107.985 429.896 106.688 429.896 105.08H427.896C427.896 106.032 427.537 106.676 426.793 107.147L427.863 108.837ZM429.896 105.08C429.896 104.212 429.704 103.403 429.23 102.739L427.602 103.901C427.768 104.133 427.896 104.497 427.896 105.08H429.896ZM429.23 102.739C428.791 102.125 428.184 101.661 427.461 101.325L426.619 103.139C427.09 103.358 427.401 103.619 427.602 103.901L429.23 102.739ZM427.487 101.338C426.803 100.995 426.01 100.727 425.121 100.522L424.671 102.47C425.446 102.649 426.083 102.871 426.593 103.126L427.487 101.338ZM425.15 100.529C424.322 100.311 423.399 100.094 422.384 99.8779L421.968 101.834C422.958 102.045 423.849 102.255 424.642 102.463L425.15 100.529ZM422.39 99.8793C420.661 99.4996 419.411 99.1315 418.602 98.7849L417.814 100.623C418.797 101.045 420.193 101.444 421.962 101.833L422.39 99.8793ZM418.62 98.7929C417.783 98.414 417.161 98.0254 416.725 97.6413L415.403 99.1427C416.034 99.6973 416.841 100.183 417.796 100.615L418.62 98.7929ZM416.74 97.6548C416.332 97.2809 416.019 96.842 415.798 96.3304L413.962 97.1256C414.295 97.894 414.772 98.5645 415.388 99.1292L416.74 97.6548ZM415.798 96.3304C415.583 95.8346 415.464 95.2479 415.464 94.552H413.464C413.464 95.4775 413.623 96.3414 413.962 97.1256L415.798 96.3304ZM415.464 94.552C415.464 92.9459 416.046 91.8157 417.182 91.0187L416.034 89.3813C414.311 90.5896 413.464 92.3608 413.464 94.552H415.464ZM417.185 91.017C418.4 90.159 420.235 89.664 422.816 89.664V87.664C420.021 87.664 417.717 88.193 416.031 89.383L417.185 91.017ZM422.816 89.664C425.259 89.664 426.972 90.0413 428.074 90.6808L429.078 88.9512C427.534 88.0547 425.408 87.664 422.816 87.664V89.664ZM428.074 90.6808C429.122 91.2895 429.919 92.3468 430.4 93.9991L432.32 93.4409C431.734 91.4239 430.675 89.8785 429.078 88.9512L428.074 90.6808ZM431.189 92.7348L428.245 93.2468L428.587 95.2172L431.531 94.7052L431.189 92.7348ZM429.381 93.9689C429.002 92.5807 428.237 91.4946 427.047 90.8308L426.073 92.5772C426.718 92.9374 427.19 93.5366 427.451 94.4951L429.381 93.9689ZM427.071 90.8447C425.958 90.1817 424.494 89.904 422.784 89.904V91.904C424.317 91.904 425.37 92.1597 426.049 92.5633L427.071 90.8447ZM422.784 89.904C420.944 89.904 419.382 90.2141 418.215 90.9563L419.289 92.6437C420 92.1913 421.125 91.904 422.784 91.904V89.904ZM418.22 90.9531C416.99 91.7256 416.376 92.9223 416.376 94.392H418.376C418.376 93.5577 418.679 93.0264 419.284 92.6469L418.22 90.9531ZM416.376 94.392C416.376 95.2597 416.611 96.0597 417.143 96.7172L418.697 95.4588C418.504 95.2203 418.376 94.8896 418.376 94.392H416.376ZM417.158 96.7356C417.634 97.2958 418.271 97.7456 419.02 98.1082L419.892 96.3078C419.318 96.0304 418.931 95.7335 418.682 95.4404L417.158 96.7356ZM419.055 98.1242C419.841 98.4678 421.288 98.8589 423.304 99.3044L423.736 97.3516C421.698 96.9011 420.437 96.5456 419.857 96.2918L419.055 98.1242ZM423.306 99.3049C423.977 99.4516 424.637 99.6088 425.286 99.7763L425.786 97.8397C425.112 97.6659 424.428 97.503 423.734 97.3511L423.306 99.3049ZM425.322 99.7849C425.958 99.9239 426.546 100.101 427.09 100.315L427.822 98.4532C427.171 98.1976 426.48 97.9908 425.75 97.8311L425.322 99.7849ZM427.13 100.329C427.686 100.521 428.199 100.759 428.67 101.041L429.698 99.3265C429.103 98.9689 428.463 98.6734 427.782 98.4386L427.13 100.329ZM428.71 101.064C429.164 101.309 429.534 101.606 429.833 101.955L431.351 100.653C430.882 100.106 430.314 99.6566 429.658 99.3035L428.71 101.064ZM429.867 101.993C430.169 102.311 430.408 102.7 430.578 103.176L432.462 102.504C432.205 101.785 431.826 101.151 431.317 100.615L429.867 101.993ZM430.594 103.217C430.767 103.643 430.872 104.201 430.872 104.92H432.872C432.872 104.017 432.742 103.189 432.446 102.463L430.594 103.217ZM436.257 111H435.257V112H436.257V111ZM436.257 88.984V87.984H435.257V88.984H436.257ZM439.233 88.984H440.233V87.984H439.233V88.984ZM439.233 111V112H440.233V111H439.233ZM437.257 111V88.984H435.257V111H437.257ZM436.257 89.984H439.233V87.984H436.257V89.984ZM438.233 88.984V111H440.233V88.984H438.233ZM439.233 110H436.257V112H439.233V110ZM446.668 91.608L447.379 92.3112L447.382 92.3073L446.668 91.608ZM460.684 89.912L460.202 90.7885L460.212 90.7937L460.684 89.912ZM464.204 93.848L464.484 94.8079L465.595 94.4832L465.112 93.431L464.204 93.848ZM461.356 94.68L460.461 95.1272L460.834 95.874L461.636 95.6399L461.356 94.68ZM458.764 91.96L458.296 92.8438L458.303 92.8475L458.764 91.96ZM448.844 93.4L448.091 92.7415L448.091 92.7415L448.844 93.4ZM448.972 106.488L448.221 107.149L448.226 107.154L448.972 106.488ZM458.892 108.248L459.218 109.193L459.227 109.19L458.892 108.248ZM461.932 106.456L462.629 107.173L462.932 106.878V106.456H461.932ZM461.932 102.488H462.932V101.488H461.932V102.488ZM455.34 102.488H454.34V103.488H455.34V102.488ZM455.34 99.992V98.992H454.34V99.992H455.34ZM464.684 99.992H465.684V98.992H464.684V99.992ZM464.684 107.576L465.397 108.277L465.684 107.985V107.576H464.684ZM460.364 110.36L460.719 111.295L460.725 111.292L460.364 110.36ZM448.94 109.944L449.422 109.068L449.422 109.068L448.94 109.944ZM445.1 105.976L444.207 106.428L444.212 106.436L445.1 105.976ZM444.788 99.896C444.788 96.4899 445.696 94.0123 447.379 92.3112L445.956 90.9048C443.799 93.0864 442.788 96.1341 442.788 99.896H444.788ZM447.382 92.3073C449.068 90.5839 451.471 89.664 454.732 89.664V87.664C451.08 87.664 448.107 88.7068 445.953 90.9087L447.382 92.3073ZM454.732 89.664C457.083 89.664 458.884 90.0644 460.202 90.7885L461.165 89.0355C459.454 88.0956 457.287 87.664 454.732 87.664V89.664ZM460.212 90.7937C461.504 91.4853 462.538 92.6168 463.295 94.265L465.112 93.431C464.205 91.4525 462.893 89.9601 461.155 89.0303L460.212 90.7937ZM463.923 92.8881L461.075 93.7201L461.636 95.6399L464.484 94.8079L463.923 92.8881ZM462.25 94.2328C461.547 92.8278 460.541 91.7562 459.224 91.0725L458.303 92.8475C459.205 93.3158 459.926 94.0576 460.461 95.1272L462.25 94.2328ZM459.231 91.0762C457.959 90.4027 456.421 90.096 454.668 90.096V92.096C456.199 92.096 457.392 92.3653 458.296 92.8438L459.231 91.0762ZM454.668 90.096C451.917 90.096 449.67 90.9372 448.091 92.7415L449.596 94.0585C450.705 92.7908 452.341 92.096 454.668 92.096V90.096ZM448.091 92.7415C446.537 94.5176 445.828 96.9489 445.828 99.896H447.828C447.828 97.2538 448.462 95.3544 449.596 94.0585L448.091 92.7415ZM445.828 99.896C445.828 102.842 446.59 105.298 448.221 107.149L449.722 105.827C448.495 104.435 447.828 102.497 447.828 99.896H445.828ZM448.226 107.154C449.878 109.004 452.144 109.888 454.892 109.888V107.888C452.605 107.888 450.924 107.172 449.717 105.822L448.226 107.154ZM454.892 109.888C456.422 109.888 457.866 109.659 459.217 109.193L458.566 107.303C457.442 107.69 456.22 107.888 454.892 107.888V109.888ZM459.227 109.19C460.588 108.706 461.735 108.041 462.629 107.173L461.234 105.739C460.592 106.364 459.712 106.894 458.556 107.306L459.227 109.19ZM462.932 106.456V102.488H460.932V106.456H462.932ZM461.932 101.488H455.34V103.488H461.932V101.488ZM456.34 102.488V99.992H454.34V102.488H456.34ZM455.34 100.992H464.684V98.992H455.34V100.992ZM463.684 99.992V107.576H465.684V99.992H463.684ZM463.97 106.875C462.905 107.959 461.589 108.813 460.002 109.428L460.725 111.292C462.552 110.585 464.115 109.582 465.397 108.277L463.97 106.875ZM460.008 109.425C458.446 110.018 456.744 110.32 454.892 110.32V112.32C456.965 112.32 458.91 111.982 460.719 111.295L460.008 109.425ZM454.892 110.32C452.721 110.32 450.91 109.888 449.422 109.068L448.457 110.82C450.297 111.834 452.454 112.32 454.892 112.32V110.32ZM449.422 109.068C447.936 108.249 446.795 107.073 445.987 105.516L444.212 106.436C445.196 108.335 446.615 109.805 448.457 110.82L449.422 109.068ZM445.992 105.524C445.201 103.962 444.788 102.096 444.788 99.896H442.788C442.788 102.347 443.249 104.534 444.207 106.428L445.992 105.524ZM483.958 111L483.112 111.532L483.406 112H483.958V111ZM472.183 92.248L473.029 91.7162L471.185 92.3117L472.183 92.248ZM472.279 93.752L473.278 93.7276L473.278 93.7079L473.276 93.6883L472.279 93.752ZM472.343 96.376H473.343V96.3638L473.342 96.3516L472.343 96.376ZM472.343 111V112H473.343V111H472.343ZM469.687 111H468.687V112H469.687V111ZM469.687 88.984V87.984H468.687V88.984H469.687ZM473.143 88.984L473.988 88.4507L473.694 87.984H473.143V88.984ZM485.047 107.864L484.201 108.397L486.244 111.639L486.045 107.812L485.047 107.864ZM484.887 88.984V87.984H483.887V88.984H484.887ZM487.575 88.984H488.575V87.984H487.575V88.984ZM487.575 111V112H488.575V111H487.575ZM484.805 110.468L473.029 91.7162L471.336 92.7798L483.112 111.532L484.805 110.468ZM471.185 92.3117L471.281 93.8157L473.276 93.6883L473.18 92.1843L471.185 92.3117ZM471.279 93.7764L471.343 96.4004L473.342 96.3516L473.278 93.7276L471.279 93.7764ZM471.343 96.376V111H473.343V96.376H471.343ZM472.343 110H469.687V112H472.343V110ZM470.687 111V88.984H468.687V111H470.687ZM469.687 89.984H473.143V87.984H469.687V89.984ZM472.297 89.5173L484.201 108.397L485.892 107.331L473.988 88.4507L472.297 89.5173ZM486.045 107.812C485.939 105.766 485.887 104.305 485.887 103.416H483.887C483.887 104.361 483.941 105.866 484.048 107.916L486.045 107.812ZM485.887 103.416V88.984H483.887V103.416H485.887ZM484.887 89.984H487.575V87.984H484.887V89.984ZM486.575 88.984V111H488.575V88.984H486.575ZM487.575 110H483.958V112H487.575V110Z" fill="#B7BABF"/>
</svg>
