<svg width="543" height="300" viewBox="0 0 543 300" fill="none" xmlns="http://www.w3.org/2000/svg">
<g filter="url(#filter0_f)">
<path d="M64.504 132.918L63.6694 132.367L63.504 132.617V132.918H64.504ZM64.504 180.798V181.798H65.504V180.798H64.504ZM49.048 180.798H48.048V181.798H49.048V180.798ZM49.048 132.918H50.048V132.618L49.8835 132.368L49.048 132.918ZM4.528 65.2136V64.2136H2.6736L3.69246 65.7631L4.528 65.2136ZM21.832 65.2136L22.6753 64.6763L22.3806 64.2136H21.832V65.2136ZM56.944 120.318L56.1007 120.855L56.944 122.179L57.7873 120.855L56.944 120.318ZM92.056 65.2136V64.2136H91.5074L91.2127 64.6763L92.056 65.2136ZM109.192 65.2136L110.027 65.7645L111.05 64.2136H109.192V65.2136ZM63.504 132.918V180.798H65.504V132.918H63.504ZM64.504 179.798H49.048V181.798H64.504V179.798ZM50.048 180.798V132.918H48.048V180.798H50.048ZM49.8835 132.368L5.36354 64.6642L3.69246 65.7631L48.2125 133.467L49.8835 132.368ZM4.528 66.2136H21.832V64.2136H4.528V66.2136ZM20.9887 65.751L56.1007 120.855L57.7873 119.78L22.6753 64.6763L20.9887 65.751ZM57.7873 120.855L92.8994 65.751L91.2127 64.6763L56.1007 119.78L57.7873 120.855ZM92.056 66.2136H109.192V64.2136H92.056V66.2136ZM108.357 64.6628L63.6694 132.367L65.3386 133.469L110.027 65.7645L108.357 64.6628ZM208.483 180.798L207.552 181.163L207.801 181.798H208.483V180.798ZM195.211 147.03L196.141 146.664L195.892 146.03H195.211V147.03ZM142.627 147.03V146.03H141.945L141.696 146.664L142.627 147.03ZM129.355 180.798V181.798H130.036L130.285 181.163L129.355 180.798ZM113.059 180.798L112.133 180.42L111.57 181.798H113.059V180.798ZM160.267 65.2136V64.2136H159.595L159.341 64.8355L160.267 65.2136ZM178.075 65.2136L179.003 64.8413L178.751 64.2136H178.075V65.2136ZM224.443 180.798V181.798H225.921L225.371 180.425L224.443 180.798ZM169.003 76.9736L169.956 76.6714L169.059 73.8427L168.061 76.6373L169.003 76.9736ZM168.163 79.3256L167.221 78.9893L167.211 79.0168L167.203 79.0447L168.163 79.3256ZM162.115 96.7977L163.047 97.1605L163.049 97.1536L162.115 96.7977ZM147.331 134.766L146.399 134.403L145.868 135.766H147.331V134.766ZM190.507 134.766V135.766H191.967L191.439 134.404L190.507 134.766ZM175.723 96.6296L176.655 96.2682L176.651 96.2585L176.647 96.2489L175.723 96.6296ZM171.187 83.8616L172.142 83.566L172.14 83.5594L171.187 83.8616ZM209.413 180.432L196.141 146.664L194.28 147.395L207.552 181.163L209.413 180.432ZM195.211 146.03H142.627V148.03H195.211V146.03ZM141.696 146.664L128.424 180.432L130.285 181.163L143.557 147.395L141.696 146.664ZM129.355 179.798H113.059V181.798H129.355V179.798ZM113.984 181.176L161.192 65.5918L159.341 64.8355L112.133 180.42L113.984 181.176ZM160.267 66.2136H178.075V64.2136H160.267V66.2136ZM177.147 65.586L223.515 181.17L225.371 180.425L179.003 64.8413L177.147 65.586ZM224.443 179.798H208.483V181.798H224.443V179.798ZM168.061 76.6373L167.221 78.9893L169.104 79.662L169.944 77.31L168.061 76.6373ZM167.203 79.0447C165.869 83.6013 163.863 89.398 161.18 96.4417L163.049 97.1536C165.742 90.0853 167.768 84.234 169.122 79.6065L167.203 79.0447ZM161.183 96.4348L146.399 134.403L148.262 135.128L163.046 97.1605L161.183 96.4348ZM147.331 135.766H190.507V133.766H147.331V135.766ZM191.439 134.404L176.655 96.2682L174.79 96.9911L189.574 135.127L191.439 134.404ZM176.647 96.2489C175.093 92.4735 173.591 88.2465 172.142 83.566L170.231 84.1573C171.695 88.8848 173.217 93.1698 174.798 97.0104L176.647 96.2489ZM172.14 83.5594L169.956 76.6714L168.049 77.2759L170.233 84.1639L172.14 83.5594ZM238.557 180.798H237.557V181.798H238.557V180.798ZM238.557 65.2136V64.2136H237.557V65.2136H238.557ZM254.181 65.2136H255.181V64.2136H254.181V65.2136ZM254.181 168.03H253.181V169.03H254.181V168.03ZM312.645 168.03H313.645V167.03H312.645V168.03ZM312.645 180.798V181.798H313.645V180.798H312.645ZM239.557 180.798V65.2136H237.557V180.798H239.557ZM238.557 66.2136H254.181V64.2136H238.557V66.2136ZM253.181 65.2136V168.03H255.181V65.2136H253.181ZM254.181 169.03H312.645V167.03H254.181V169.03ZM311.645 168.03V180.798H313.645V168.03H311.645ZM312.645 179.798H238.557V181.798H312.645V179.798ZM331.909 180.798H330.909V181.798H331.909V180.798ZM331.909 65.2136V64.2136H330.909V65.2136H331.909ZM347.533 65.2136H348.533V64.2136H347.533V65.2136ZM347.533 168.03H346.533V169.03H347.533V168.03ZM405.997 168.03H406.997V167.03H405.997V168.03ZM405.997 180.798V181.798H406.997V180.798H405.997ZM332.909 180.798V65.2136H330.909V180.798H332.909ZM331.909 66.2136H347.533V64.2136H331.909V66.2136ZM346.533 65.2136V168.03H348.533V65.2136H346.533ZM347.533 169.03H405.997V167.03H347.533V169.03ZM404.997 168.03V180.798H406.997V168.03H404.997ZM405.997 179.798H331.909V181.798H405.997V179.798ZM507.076 180.798L506.146 181.163L506.395 181.798H507.076V180.798ZM493.804 147.03L494.735 146.664L494.486 146.03H493.804V147.03ZM441.22 147.03V146.03H440.539L440.29 146.664L441.22 147.03ZM427.948 180.798V181.798H428.63L428.879 181.163L427.948 180.798ZM411.652 180.798L410.727 180.42L410.164 181.798H411.652V180.798ZM458.86 65.2136V64.2136H458.189L457.935 64.8355L458.86 65.2136ZM476.668 65.2136L477.596 64.8413L477.345 64.2136H476.668V65.2136ZM523.036 180.798V181.798H524.515L523.964 180.425L523.036 180.798ZM467.596 76.9736L468.55 76.6714L467.653 73.8427L466.655 76.6373L467.596 76.9736ZM466.756 79.3256L465.815 78.9893L465.805 79.0168L465.797 79.0447L466.756 79.3256ZM460.708 96.7977L461.64 97.1605L461.643 97.1536L460.708 96.7977ZM445.924 134.766L444.993 134.403L444.462 135.766H445.924V134.766ZM489.1 134.766V135.766H490.561L490.033 134.404L489.1 134.766ZM474.316 96.6296L475.249 96.2682L475.245 96.2585L475.241 96.2489L474.316 96.6296ZM469.78 83.8616L470.736 83.566L470.734 83.5594L469.78 83.8616ZM508.007 180.432L494.735 146.664L492.874 147.395L506.146 181.163L508.007 180.432ZM493.804 146.03H441.22V148.03H493.804V146.03ZM440.29 146.664L427.018 180.432L428.879 181.163L442.151 147.395L440.29 146.664ZM427.948 179.798H411.652V181.798H427.948V179.798ZM412.578 181.176L459.786 65.5918L457.935 64.8355L410.727 180.42L412.578 181.176ZM458.86 66.2136H476.668V64.2136H458.86V66.2136ZM475.74 65.586L522.108 181.17L523.964 180.425L477.596 64.8413L475.74 65.586ZM523.036 179.798H507.076V181.798H523.036V179.798ZM466.655 76.6373L465.815 78.9893L467.698 79.662L468.538 77.31L466.655 76.6373ZM465.797 79.0447C464.463 83.6013 462.457 89.398 459.774 96.4417L461.643 97.1536C464.336 90.0853 466.362 84.234 467.716 79.6065L465.797 79.0447ZM459.777 96.4348L444.993 134.403L446.856 135.128L461.64 97.1605L459.777 96.4348ZM445.924 135.766H489.1V133.766H445.924V135.766ZM490.033 134.404L475.249 96.2682L473.384 96.9911L488.168 135.127L490.033 134.404ZM475.241 96.2489C473.686 92.4735 472.184 88.2465 470.736 83.566L468.825 84.1573C470.288 88.8848 471.81 93.1698 473.392 97.0104L475.241 96.2489ZM470.734 83.5594L468.55 76.6714L466.643 77.2759L468.827 84.1639L470.734 83.5594Z" fill="url(#paint0_linear)"/>
</g>
<path d="M73.2742 124.12L72.4396 123.569L72.2742 123.82V124.12H73.2742ZM73.2742 172V173H74.2742V172H73.2742ZM57.8182 172H56.8182V173H57.8182V172ZM57.8182 124.12H58.8182V123.821L58.6538 123.571L57.8182 124.12ZM13.2982 56.416V55.416H11.4438L12.4627 56.9654L13.2982 56.416ZM30.6022 56.416L31.4456 55.8786L31.1508 55.416H30.6022V56.416ZM65.7142 111.52L64.8709 112.057L65.7142 113.381L66.5576 112.057L65.7142 111.52ZM100.826 56.416V55.416H100.278L99.9829 55.8786L100.826 56.416ZM117.962 56.416L118.797 56.9669L119.82 55.416H117.962V56.416ZM72.2742 124.12V172H74.2742V124.12H72.2742ZM73.2742 171H57.8182V173H73.2742V171ZM58.8182 172V124.12H56.8182V172H58.8182ZM58.6538 123.571L14.1338 55.8666L12.4627 56.9654L56.9827 124.669L58.6538 123.571ZM13.2982 57.416H30.6022V55.416H13.2982V57.416ZM29.7589 56.9534L64.8709 112.057L66.5576 110.983L31.4456 55.8786L29.7589 56.9534ZM66.5576 112.057L101.67 56.9534L99.9829 55.8786L64.8709 110.983L66.5576 112.057ZM100.826 57.416H117.962V55.416H100.826V57.416ZM117.128 55.8651L72.4396 123.569L74.1088 124.671L118.797 56.9669L117.128 55.8651ZM217.253 172L216.322 172.366L216.571 173H217.253V172ZM203.981 138.232L204.912 137.866L204.662 137.232H203.981V138.232ZM151.397 138.232V137.232H150.715L150.466 137.866L151.397 138.232ZM138.125 172V173H138.806L139.056 172.366L138.125 172ZM121.829 172L120.903 171.622L120.34 173H121.829V172ZM169.037 56.416V55.416H168.365L168.111 56.0379L169.037 56.416ZM186.845 56.416L187.773 56.0437L187.521 55.416H186.845V56.416ZM233.213 172V173H234.691L234.141 171.628L233.213 172ZM177.773 68.176L178.726 67.8738L177.829 65.0451L176.831 67.8397L177.773 68.176ZM176.933 70.528L175.991 70.1917L175.981 70.2191L175.973 70.2471L176.933 70.528ZM170.885 88L171.817 88.3629L171.819 88.356L170.885 88ZM156.101 125.968L155.169 125.605L154.638 126.968H156.101V125.968ZM199.277 125.968V126.968H200.737L200.209 125.607L199.277 125.968ZM184.493 87.832L185.425 87.4705L185.421 87.4608L185.418 87.4512L184.493 87.832ZM179.957 75.064L180.912 74.7683L180.91 74.7618L179.957 75.064ZM218.184 171.634L204.912 137.866L203.05 138.598L216.322 172.366L218.184 171.634ZM203.981 137.232H151.397V139.232H203.981V137.232ZM150.466 137.866L137.194 171.634L139.056 172.366L152.328 138.598L150.466 137.866ZM138.125 171H121.829V173H138.125V171ZM122.755 172.378L169.963 56.7941L168.111 56.0379L120.903 171.622L122.755 172.378ZM169.037 57.416H186.845V55.416H169.037V57.416ZM185.917 56.7883L232.285 172.372L234.141 171.628L187.773 56.0437L185.917 56.7883ZM233.213 171H217.253V173H233.213V171ZM176.831 67.8397L175.991 70.1917L177.875 70.8643L178.715 68.5123L176.831 67.8397ZM175.973 70.2471C174.64 74.8036 172.634 80.6004 169.95 87.644L171.819 88.356C174.512 81.2876 176.538 75.4364 177.893 70.8089L175.973 70.2471ZM169.953 87.6372L155.169 125.605L157.033 126.331L171.817 88.3628L169.953 87.6372ZM156.101 126.968H199.277V124.968H156.101V126.968ZM200.209 125.607L185.425 87.4705L183.56 88.1934L198.344 126.329L200.209 125.607ZM185.418 87.4512C183.863 83.6759 182.361 79.4489 180.912 74.7683L179.002 75.3597C180.465 80.0871 181.987 84.3721 183.568 88.2127L185.418 87.4512ZM180.91 74.7618L178.726 67.8738L176.82 68.4782L179.004 75.3662L180.91 74.7618ZM247.327 172H246.327V173H247.327V172ZM247.327 56.416V55.416H246.327V56.416H247.327ZM262.951 56.416H263.951V55.416H262.951V56.416ZM262.951 159.232H261.951V160.232H262.951V159.232ZM321.415 159.232H322.415V158.232H321.415V159.232ZM321.415 172V173H322.415V172H321.415ZM248.327 172V56.416H246.327V172H248.327ZM247.327 57.416H262.951V55.416H247.327V57.416ZM261.951 56.416V159.232H263.951V56.416H261.951ZM262.951 160.232H321.415V158.232H262.951V160.232ZM320.415 159.232V172H322.415V159.232H320.415ZM321.415 171H247.327V173H321.415V171ZM340.679 172H339.679V173H340.679V172ZM340.679 56.416V55.416H339.679V56.416H340.679ZM356.303 56.416H357.303V55.416H356.303V56.416ZM356.303 159.232H355.303V160.232H356.303V159.232ZM414.767 159.232H415.767V158.232H414.767V159.232ZM414.767 172V173H415.767V172H414.767ZM341.679 172V56.416H339.679V172H341.679ZM340.679 57.416H356.303V55.416H340.679V57.416ZM355.303 56.416V159.232H357.303V56.416H355.303ZM356.303 160.232H414.767V158.232H356.303V160.232ZM413.767 159.232V172H415.767V159.232H413.767ZM414.767 171H340.679V173H414.767V171ZM515.847 172L514.916 172.366L515.165 173H515.847V172ZM502.575 138.232L503.505 137.866L503.256 137.232H502.575V138.232ZM449.991 138.232V137.232H449.309L449.06 137.866L449.991 138.232ZM436.719 172V173H437.4L437.649 172.366L436.719 172ZM420.423 172L419.497 171.622L418.934 173H420.423V172ZM467.631 56.416V55.416H466.959L466.705 56.0379L467.631 56.416ZM485.439 56.416L486.367 56.0437L486.115 55.416H485.439V56.416ZM531.807 172V173H533.285L532.735 171.628L531.807 172ZM476.367 68.176L477.32 67.8738L476.423 65.0451L475.425 67.8397L476.367 68.176ZM475.527 70.528L474.585 70.1917L474.575 70.2191L474.567 70.2471L475.527 70.528ZM469.479 88L470.41 88.3629L470.413 88.356L469.479 88ZM454.695 125.968L453.763 125.605L453.232 126.968H454.695V125.968ZM497.871 125.968V126.968H499.331L498.803 125.607L497.871 125.968ZM483.087 87.832L484.019 87.4705L484.015 87.4608L484.011 87.4512L483.087 87.832ZM478.551 75.064L479.506 74.7683L479.504 74.7618L478.551 75.064ZM516.777 171.634L503.505 137.866L501.644 138.598L514.916 172.366L516.777 171.634ZM502.575 137.232H449.991V139.232H502.575V137.232ZM449.06 137.866L435.788 171.634L437.649 172.366L450.921 138.598L449.06 137.866ZM436.719 171H420.423V173H436.719V171ZM421.348 172.378L468.556 56.7941L466.705 56.0379L419.497 171.622L421.348 172.378ZM467.631 57.416H485.439V55.416H467.631V57.416ZM484.511 56.7883L530.879 172.372L532.735 171.628L486.367 56.0437L484.511 56.7883ZM531.807 171H515.847V173H531.807V171ZM475.425 67.8397L474.585 70.1917L476.468 70.8643L477.308 68.5123L475.425 67.8397ZM474.567 70.2471C473.233 74.8036 471.227 80.6004 468.544 87.644L470.413 88.356C473.106 81.2876 475.132 75.4364 476.486 70.8089L474.567 70.2471ZM468.547 87.6372L453.763 125.605L455.626 126.331L470.41 88.3628L468.547 87.6372ZM454.695 126.968H497.871V124.968H454.695V126.968ZM498.803 125.607L484.019 87.4705L482.154 88.1934L496.938 126.329L498.803 125.607ZM484.011 87.4512C482.457 83.6759 480.955 79.4489 479.506 74.7683L477.595 75.3597C479.059 80.0871 480.58 84.3721 482.162 88.2127L484.011 87.4512ZM479.504 74.7618L477.32 67.8738L475.413 68.4782L477.597 75.3662L479.504 74.7618Z" fill="url(#paint1_linear)"/>
<defs>
<filter id="filter0_f" x="0.673615" y="62.2137" width="525.841" height="121.584" filterUnits="userSpaceOnUse" color-interpolation-filters="sRGB">
<feFlood flood-opacity="0" result="BackgroundImageFix"/>
<feBlend mode="normal" in="SourceGraphic" in2="BackgroundImageFix" result="shape"/>
<feGaussianBlur stdDeviation="1" result="effect1_foregroundBlur"/>
</filter>
<linearGradient id="paint0_linear" x1="-92.5187" y1="153.898" x2="578.615" y2="153.898" gradientUnits="userSpaceOnUse">
<stop stop-color="#688CC1"/>
<stop offset="1" stop-color="#84DCC6"/>
</linearGradient>
<linearGradient id="paint1_linear" x1="573.456" y1="145.101" x2="-3.21102" y2="145.101" gradientUnits="userSpaceOnUse">
<stop stop-color="#0D131C"/>
<stop offset="1" stop-color="#B7BABF"/>
</linearGradient>
</defs>
</svg>
