<svg width="618" height="341" viewBox="0 0 618 341" fill="none" xmlns="http://www.w3.org/2000/svg">
<g filter="url(#filter0_f)">
<path d="M126.4 182L123.744 180.605L123.737 180.619L123.73 180.632L126.4 182ZM103 206.6L104.451 209.226L104.464 209.218L104.477 209.211L103 206.6ZM16.4 215H13.4V218H16.4V215ZM16.4 77.4V74.4H13.4V77.4H16.4ZM115.8 95L113.761 97.2008L113.768 97.2067L113.774 97.2124L115.8 95ZM102 105.8L99.9256 107.967L99.9333 107.975L99.941 107.982L102 105.8ZM35 92.4V89.4H32V92.4H35ZM35 200H32V203H35V200ZM92.2 193.4L90.7164 190.793L90.7066 190.798L90.6969 190.804L92.2 193.4ZM110 174.4L112.683 175.742L112.688 175.733L112.692 175.725L110 174.4ZM131.8 144.8C131.8 158.532 129.082 170.438 123.744 180.605L129.056 183.395C134.918 172.229 137.8 159.335 137.8 144.8H131.8ZM123.73 180.632C118.523 190.793 111.13 198.553 101.523 203.989L104.477 209.211C115.137 203.18 123.344 194.541 129.07 183.368L123.73 180.632ZM101.549 203.974C91.9232 209.294 80.7035 212 67.8 212V218C81.5632 218 93.8101 215.106 104.451 209.226L101.549 203.974ZM67.8 212H16.4V218H67.8V212ZM19.4 215V77.4H13.4V215H19.4ZM16.4 80.4H62V74.4H16.4V80.4ZM62 80.4C84.7086 80.4 101.817 86.1365 113.761 97.2008L117.839 92.7991C104.45 80.3968 85.6914 74.4 62 74.4V80.4ZM113.774 97.2124C125.668 108.105 131.8 123.81 131.8 144.8H137.8C137.8 122.59 131.266 105.095 117.826 92.7876L113.774 97.2124ZM119.2 144.8C119.2 127.177 114.298 113.28 104.059 103.618L99.941 107.982C108.636 116.187 113.2 128.29 113.2 144.8H119.2ZM104.074 103.633C94.006 93.9959 79.6878 89.4 61.6 89.4V95.4C78.7122 95.4 91.3274 99.7375 99.9256 107.967L104.074 103.633ZM61.6 89.4H35V95.4H61.6V89.4ZM32 92.4V200H38V92.4H32ZM35 203H65.8V197H35V203ZM65.8 203C76.2533 203 85.5859 200.696 93.7031 195.996L90.6969 190.804C83.6141 194.904 75.3467 197 65.8 197V203ZM93.6836 196.007C101.954 191.302 108.295 184.518 112.683 175.742L107.317 173.058C103.438 180.815 97.9125 186.698 90.7164 190.793L93.6836 196.007ZM112.692 175.725C117.066 166.835 119.2 156.497 119.2 144.8H113.2C113.2 155.769 111.201 165.165 107.308 173.075L112.692 175.725ZM186.136 210.8L184.811 213.492L184.811 213.492L186.136 210.8ZM166.536 193L163.937 194.498L163.952 194.524L163.967 194.55L166.536 193ZM159.736 77.4V74.4H156.736V77.4H159.736ZM178.336 77.4H181.336V74.4H178.336V77.4ZM187.936 192L190.079 189.901L190.079 189.901L187.936 192ZM244.336 191.8L246.436 193.942L246.437 193.942L244.336 191.8ZM254.736 77.4V74.4H251.736V77.4H254.736ZM273.336 77.4H276.336V74.4H273.336V77.4ZM266.136 192.2L263.552 190.675L263.548 190.682L263.545 190.688L266.136 192.2ZM246.136 210.6L244.811 207.908L244.803 207.913L244.794 207.917L246.136 210.6ZM215.736 214C204.767 214 195.371 212.001 187.46 208.108L184.811 213.492C193.701 217.866 204.039 220 215.736 220V214ZM187.46 208.108C179.556 204.219 173.463 198.673 169.105 191.45L163.967 194.55C168.942 202.794 175.916 209.115 184.811 213.492L187.46 208.108ZM169.135 191.502C164.91 184.17 162.736 175.374 162.736 165H156.736C156.736 176.226 159.095 186.096 163.937 194.498L169.135 191.502ZM162.736 165V77.4H156.736V165H162.736ZM159.736 80.4H178.336V74.4H159.736V80.4ZM175.336 77.4V163.4H181.336V77.4H175.336ZM175.336 163.4C175.336 176.422 178.666 186.824 185.793 194.099L190.079 189.901C184.406 184.109 181.336 175.445 181.336 163.4H175.336ZM185.793 194.099C192.918 201.372 202.992 204.8 215.536 204.8V198.8C204.08 198.8 195.754 195.694 190.079 189.901L185.793 194.099ZM215.536 204.8C228.475 204.8 238.921 201.31 246.436 193.942L242.236 189.658C236.151 195.623 227.397 198.8 215.536 198.8V204.8ZM246.437 193.942C254.117 186.409 257.736 175.662 257.736 162.2H251.736C251.736 174.605 248.422 183.591 242.235 189.658L246.437 193.942ZM257.736 162.2V77.4H251.736V162.2H257.736ZM254.736 80.4H273.336V74.4H254.736V80.4ZM270.336 77.4V163.2H276.336V77.4H270.336ZM270.336 163.2C270.336 173.964 268.033 183.083 263.552 190.675L268.72 193.725C273.839 185.05 276.336 174.836 276.336 163.2H270.336ZM263.545 190.688C259.188 198.157 252.973 203.89 244.811 207.908L247.461 213.292C256.632 208.776 263.75 202.243 268.727 193.712L263.545 190.688ZM244.794 207.917C236.762 211.933 227.109 214 215.736 214V220C227.83 220 238.443 217.801 247.478 213.283L244.794 207.917ZM305.072 215H302.072V218H305.072V215ZM305.072 77.4V74.4H302.072V77.4H305.072ZM409.472 77.4H412.472V74.4H409.472V77.4ZM409.472 92.6V95.6H412.472V92.6H409.472ZM323.672 92.6V89.6H320.672V92.6H323.672ZM323.672 136.8H320.672V139.8H323.672V136.8ZM403.672 136.8H406.672V133.8H403.672V136.8ZM403.672 151.8V154.8H406.672V151.8H403.672ZM323.672 151.8V148.8H320.672V151.8H323.672ZM323.672 199.8H320.672V202.8H323.672V199.8ZM413.472 199.8H416.472V196.8H413.472V199.8ZM413.472 215V218H416.472V215H413.472ZM308.072 215V77.4H302.072V215H308.072ZM305.072 80.4H409.472V74.4H305.072V80.4ZM406.472 77.4V92.6H412.472V77.4H406.472ZM409.472 89.6H323.672V95.6H409.472V89.6ZM320.672 92.6V136.8H326.672V92.6H320.672ZM323.672 139.8H403.672V133.8H323.672V139.8ZM400.672 136.8V151.8H406.672V136.8H400.672ZM403.672 148.8H323.672V154.8H403.672V148.8ZM320.672 151.8V199.8H326.672V151.8H320.672ZM323.672 202.8H413.472V196.8H323.672V202.8ZM410.472 199.8V215H416.472V199.8H410.472ZM413.472 212H305.072V218H413.472V212ZM438.275 215H435.275V218H438.275V215ZM438.275 77.4V74.4H435.275V77.4H438.275ZM456.875 77.4H459.875V74.4H456.875V77.4ZM456.875 199.8H453.875V202.8H456.875V199.8ZM526.475 199.8H529.475V196.8H526.475V199.8ZM526.475 215V218H529.475V215H526.475ZM441.275 215V77.4H435.275V215H441.275ZM438.275 80.4H456.875V74.4H438.275V80.4ZM453.875 77.4V199.8H459.875V77.4H453.875ZM456.875 202.8H526.475V196.8H456.875V202.8ZM523.475 199.8V215H529.475V199.8H523.475ZM526.475 212H438.275V218H526.475V212Z" fill="url(#paint0_linear)"/>
</g>
<path d="M136.4 172L133.744 170.605L133.737 170.619L133.73 170.632L136.4 172ZM113 196.6L114.451 199.226L114.464 199.218L114.477 199.211L113 196.6ZM26.4 205H23.4V208H26.4V205ZM26.4 67.4V64.4H23.4V67.4H26.4ZM125.8 85L123.761 87.2008L123.768 87.2067L123.774 87.2124L125.8 85ZM112 95.8L109.926 97.9673L109.933 97.9746L109.941 97.9819L112 95.8ZM45 82.4V79.4H42V82.4H45ZM45 190H42V193H45V190ZM102.2 183.4L100.716 180.793L100.707 180.798L100.697 180.804L102.2 183.4ZM120 164.4L122.683 165.742L122.688 165.733L122.692 165.725L120 164.4ZM141.8 134.8C141.8 148.532 139.082 160.438 133.744 170.605L139.056 173.395C144.918 162.229 147.8 149.335 147.8 134.8H141.8ZM133.73 170.632C128.523 180.793 121.13 188.553 111.523 193.989L114.477 199.211C125.137 193.18 133.344 184.541 139.07 173.368L133.73 170.632ZM111.549 193.974C101.923 199.294 90.7035 202 77.8 202V208C91.5632 208 103.81 205.106 114.451 199.226L111.549 193.974ZM77.8 202H26.4V208H77.8V202ZM29.4 205V67.4H23.4V205H29.4ZM26.4 70.4H72V64.4H26.4V70.4ZM72 70.4C94.7086 70.4 111.817 76.1365 123.761 87.2008L127.839 82.7991C114.45 70.3968 95.6914 64.4 72 64.4V70.4ZM123.774 87.2124C135.668 98.1045 141.8 113.81 141.8 134.8H147.8C147.8 112.59 141.266 95.0955 127.826 82.7876L123.774 87.2124ZM129.2 134.8C129.2 117.177 124.298 103.28 114.059 93.6181L109.941 97.9819C118.636 106.187 123.2 118.29 123.2 134.8H129.2ZM114.074 93.6327C104.006 83.9959 89.6878 79.4 71.6 79.4V85.4C88.7122 85.4 101.327 89.7375 109.926 97.9673L114.074 93.6327ZM71.6 79.4H45V85.4H71.6V79.4ZM42 82.4V190H48V82.4H42ZM45 193H75.8V187H45V193ZM75.8 193C86.2533 193 95.5859 190.696 103.703 185.996L100.697 180.804C93.6141 184.904 85.3467 187 75.8 187V193ZM103.684 186.007C111.954 181.302 118.295 174.518 122.683 165.742L117.317 163.058C113.438 170.815 107.913 176.698 100.716 180.793L103.684 186.007ZM122.692 165.725C127.066 156.835 129.2 146.497 129.2 134.8H123.2C123.2 145.769 121.201 155.165 117.308 163.075L122.692 165.725ZM196.136 200.8L194.811 203.492L194.811 203.492L196.136 200.8ZM176.536 183L173.937 184.498L173.952 184.524L173.967 184.55L176.536 183ZM169.736 67.4V64.4H166.736V67.4H169.736ZM188.336 67.4H191.336V64.4H188.336V67.4ZM197.936 182L200.079 179.901L200.079 179.901L197.936 182ZM254.336 181.8L256.436 183.942L256.437 183.942L254.336 181.8ZM264.736 67.4V64.4H261.736V67.4H264.736ZM283.336 67.4H286.336V64.4H283.336V67.4ZM276.136 182.2L273.552 180.675L273.548 180.682L273.545 180.688L276.136 182.2ZM256.136 200.6L254.811 197.908L254.803 197.913L254.794 197.917L256.136 200.6ZM225.736 204C214.767 204 205.371 202.001 197.46 198.108L194.811 203.492C203.701 207.866 214.039 210 225.736 210V204ZM197.46 198.108C189.556 194.219 183.463 188.673 179.105 181.45L173.967 184.55C178.942 192.794 185.916 199.115 194.811 203.492L197.46 198.108ZM179.135 181.502C174.91 174.17 172.736 165.374 172.736 155H166.736C166.736 166.226 169.095 176.096 173.937 184.498L179.135 181.502ZM172.736 155V67.4H166.736V155H172.736ZM169.736 70.4H188.336V64.4H169.736V70.4ZM185.336 67.4V153.4H191.336V67.4H185.336ZM185.336 153.4C185.336 166.422 188.666 176.824 195.793 184.099L200.079 179.901C194.406 174.109 191.336 165.445 191.336 153.4H185.336ZM195.793 184.099C202.918 191.372 212.992 194.8 225.536 194.8V188.8C214.08 188.8 205.754 185.694 200.079 179.901L195.793 184.099ZM225.536 194.8C238.475 194.8 248.921 191.31 256.436 183.942L252.236 179.658C246.151 185.623 237.397 188.8 225.536 188.8V194.8ZM256.437 183.942C264.117 176.409 267.736 165.662 267.736 152.2H261.736C261.736 164.605 258.422 173.591 252.235 179.658L256.437 183.942ZM267.736 152.2V67.4H261.736V152.2H267.736ZM264.736 70.4H283.336V64.4H264.736V70.4ZM280.336 67.4V153.2H286.336V67.4H280.336ZM280.336 153.2C280.336 163.964 278.033 173.083 273.552 180.675L278.72 183.725C283.839 175.05 286.336 164.836 286.336 153.2H280.336ZM273.545 180.688C269.188 188.157 262.973 193.89 254.811 197.908L257.461 203.292C266.632 198.776 273.75 192.243 278.727 183.712L273.545 180.688ZM254.794 197.917C246.762 201.933 237.109 204 225.736 204V210C237.83 210 248.443 207.801 257.478 203.283L254.794 197.917ZM315.072 205H312.072V208H315.072V205ZM315.072 67.4V64.4H312.072V67.4H315.072ZM419.472 67.4H422.472V64.4H419.472V67.4ZM419.472 82.6V85.6H422.472V82.6H419.472ZM333.672 82.6V79.6H330.672V82.6H333.672ZM333.672 126.8H330.672V129.8H333.672V126.8ZM413.672 126.8H416.672V123.8H413.672V126.8ZM413.672 141.8V144.8H416.672V141.8H413.672ZM333.672 141.8V138.8H330.672V141.8H333.672ZM333.672 189.8H330.672V192.8H333.672V189.8ZM423.472 189.8H426.472V186.8H423.472V189.8ZM423.472 205V208H426.472V205H423.472ZM318.072 205V67.4H312.072V205H318.072ZM315.072 70.4H419.472V64.4H315.072V70.4ZM416.472 67.4V82.6H422.472V67.4H416.472ZM419.472 79.6H333.672V85.6H419.472V79.6ZM330.672 82.6V126.8H336.672V82.6H330.672ZM333.672 129.8H413.672V123.8H333.672V129.8ZM410.672 126.8V141.8H416.672V126.8H410.672ZM413.672 138.8H333.672V144.8H413.672V138.8ZM330.672 141.8V189.8H336.672V141.8H330.672ZM333.672 192.8H423.472V186.8H333.672V192.8ZM420.472 189.8V205H426.472V189.8H420.472ZM423.472 202H315.072V208H423.472V202ZM448.275 205H445.275V208H448.275V205ZM448.275 67.4V64.4H445.275V67.4H448.275ZM466.875 67.4H469.875V64.4H466.875V67.4ZM466.875 189.8H463.875V192.8H466.875V189.8ZM536.475 189.8H539.475V186.8H536.475V189.8ZM536.475 205V208H539.475V205H536.475ZM451.275 205V67.4H445.275V205H451.275ZM448.275 70.4H466.875V64.4H448.275V70.4ZM463.875 67.4V189.8H469.875V67.4H463.875ZM466.875 192.8H536.475V186.8H466.875V192.8ZM533.475 189.8V205H539.475V189.8H533.475ZM536.475 202H448.275V208H536.475V202Z" fill="url(#paint1_linear)"/>
<defs>
<filter id="filter0_f" x="9.39999" y="70.4" width="524.075" height="153.6" filterUnits="userSpaceOnUse" color-interpolation-filters="sRGB">
<feFlood flood-opacity="0" result="BackgroundImageFix"/>
<feBlend mode="normal" in="SourceGraphic" in2="BackgroundImageFix" result="shape"/>
<feGaussianBlur stdDeviation="2" result="effect1_foregroundBlur"/>
</filter>
<linearGradient id="paint0_linear" x1="-106.632" y1="174.931" x2="658.61" y2="174.931" gradientUnits="userSpaceOnUse">
<stop stop-color="#688CC1"/>
<stop offset="1" stop-color="#84DCC6"/>
</linearGradient>
<linearGradient id="paint1_linear" x1="652.727" y1="164.931" x2="-4.8015" y2="164.931" gradientUnits="userSpaceOnUse">
<stop stop-color="#0D131C"/>
<stop offset="1" stop-color="#B7BABF"/>
</linearGradient>
</defs>
</svg>
