<svg width="542" height="300" viewBox="0 0 542 300" fill="none" xmlns="http://www.w3.org/2000/svg">
<g filter="url(#filter0_f)">
<path d="M126.4 180.798L124.629 179.868L124.625 179.877L124.62 179.885L126.4 180.798ZM103 205.398L103.967 207.148L103.976 207.143L103.985 207.138L103 205.398ZM16.4 213.798H14.4V215.798H16.4V213.798ZM16.4 76.1976V74.1976H14.4V76.1976H16.4ZM115.8 93.7976L114.441 95.2649L114.449 95.2726L115.8 93.7976ZM102 104.598L100.617 106.042L100.622 106.047L100.627 106.052L102 104.598ZM35 91.1976V89.1976H33V91.1976H35ZM35 198.798H33V200.798H35V198.798ZM92.2 192.198L91.211 190.459L91.2044 190.463L91.1979 190.467L92.2 192.198ZM110 173.198L111.789 174.092L111.795 174.081L110 173.198ZM132.8 143.598C132.8 157.463 130.055 169.534 124.629 179.868L128.171 181.727C133.945 170.728 136.8 157.999 136.8 143.598H132.8ZM124.62 179.885C119.326 190.215 111.798 198.122 102.015 203.657L103.985 207.138C114.469 201.207 122.54 192.714 128.18 181.71L124.62 179.885ZM102.033 203.647C92.2377 209.06 80.8468 211.798 67.8 211.798V215.798C81.4199 215.798 93.4956 212.935 103.967 207.148L102.033 203.647ZM67.8 211.798H16.4V215.798H67.8V211.798ZM18.4 213.798V76.1976H14.4V213.798H18.4ZM16.4 78.1976H62V74.1976H16.4V78.1976ZM62 78.1976C84.8724 78.1976 102.256 83.9776 114.441 95.2649L117.159 92.3304C104.011 80.1511 85.5276 74.1976 62 74.1976V78.1976ZM114.449 95.2726C126.601 106.401 132.8 122.404 132.8 143.598H136.8C136.8 121.591 130.333 104.395 117.151 92.3227L114.449 95.2726ZM118.2 143.598C118.2 126.16 113.354 112.562 103.373 103.143L100.627 106.052C109.579 114.5 114.2 126.902 114.2 143.598H118.2ZM103.383 103.153C93.5596 93.7504 79.5252 89.1976 61.6 89.1976V93.1976C78.8748 93.1976 91.7738 97.5782 100.617 106.042L103.383 103.153ZM61.6 89.1976H35V93.1976H61.6V89.1976ZM33 91.1976V198.798H37V91.1976H33ZM35 200.798H65.8V196.798H35V200.798ZM65.8 200.798C76.1022 200.798 85.2573 198.528 93.2021 193.929L91.1979 190.467C83.9427 194.667 75.4978 196.798 65.8 196.798V200.798ZM93.1891 193.936C101.281 189.332 107.486 182.699 111.789 174.092L108.211 172.303C104.248 180.23 98.5861 186.263 91.211 190.459L93.1891 193.936ZM111.795 174.081C116.089 165.354 118.2 155.174 118.2 143.598H114.2C114.2 154.688 112.178 164.241 108.205 172.315L111.795 174.081ZM186.136 209.598L185.253 211.392L185.253 211.392L186.136 209.598ZM166.536 191.798L164.803 192.796L164.813 192.814L164.824 192.831L166.536 191.798ZM159.736 76.1976V74.1976H157.736V76.1976H159.736ZM178.336 76.1976H180.336V74.1976H178.336V76.1976ZM187.936 190.798L189.365 189.398L189.365 189.398L187.936 190.798ZM244.336 190.598L245.736 192.026L245.736 192.026L244.336 190.598ZM254.736 76.1976V74.1976H252.736V76.1976H254.736ZM273.336 76.1976H275.336V74.1976H273.336V76.1976ZM266.136 190.998L264.414 189.981L264.408 189.99L266.136 190.998ZM246.136 209.398L245.253 207.603L245.242 207.609L246.136 209.398ZM215.736 213.798C204.645 213.798 195.092 211.776 187.019 207.803L185.253 211.392C193.98 215.686 204.16 217.798 215.736 217.798V213.798ZM187.019 207.803C178.949 203.832 172.71 198.157 168.248 190.764L164.824 192.831C169.696 200.905 176.523 207.096 185.253 211.392L187.019 207.803ZM168.269 190.799C163.941 183.289 161.736 174.314 161.736 163.798H157.736C157.736 174.882 160.064 184.573 164.803 192.796L168.269 190.799ZM161.736 163.798V76.1976H157.736V163.798H161.736ZM159.736 78.1976H178.336V74.1976H159.736V78.1976ZM176.336 76.1976V162.198H180.336V76.1976H176.336ZM176.336 162.198C176.336 175.057 179.623 185.169 186.507 192.197L189.365 189.398C183.449 183.359 180.336 174.405 180.336 162.198H176.336ZM186.507 192.197C193.39 199.224 203.173 202.598 215.536 202.598V198.598C203.899 198.598 195.282 195.438 189.365 189.398L186.507 192.197ZM215.536 202.598C228.295 202.598 238.459 199.16 245.736 192.026L242.936 189.17C236.613 195.369 227.577 198.598 215.536 198.598V202.598ZM245.736 192.026C253.168 184.737 256.736 174.283 256.736 160.998H252.736C252.736 173.579 249.371 182.858 242.936 189.17L245.736 192.026ZM256.736 160.998V76.1976H252.736V160.998H256.736ZM254.736 78.1976H273.336V74.1976H254.736V78.1976ZM271.336 76.1976V161.998H275.336V76.1976H271.336ZM271.336 161.998C271.336 172.907 269.001 182.209 264.414 189.981L267.858 192.014C272.871 183.52 275.336 173.488 275.336 161.998H271.336ZM264.408 189.99C259.949 197.635 253.583 203.502 245.253 207.603L247.019 211.192C256.023 206.76 262.99 200.36 267.864 192.005L264.408 189.99ZM245.242 207.609C237.042 211.708 227.229 213.798 215.736 213.798V217.798C227.71 217.798 238.163 215.62 247.03 211.187L245.242 207.609ZM305.072 213.798H303.072V215.798H305.072V213.798ZM305.072 76.1976V74.1976H303.072V76.1976H305.072ZM409.472 76.1976H411.472V74.1976H409.472V76.1976ZM409.472 91.3976V93.3976H411.472V91.3976H409.472ZM323.672 91.3976V89.3976H321.672V91.3976H323.672ZM323.672 135.598H321.672V137.598H323.672V135.598ZM403.672 135.598H405.672V133.598H403.672V135.598ZM403.672 150.598V152.598H405.672V150.598H403.672ZM323.672 150.598V148.598H321.672V150.598H323.672ZM323.672 198.598H321.672V200.598H323.672V198.598ZM413.472 198.598H415.472V196.598H413.472V198.598ZM413.472 213.798V215.798H415.472V213.798H413.472ZM307.072 213.798V76.1976H303.072V213.798H307.072ZM305.072 78.1976H409.472V74.1976H305.072V78.1976ZM407.472 76.1976V91.3976H411.472V76.1976H407.472ZM409.472 89.3976H323.672V93.3976H409.472V89.3976ZM321.672 91.3976V135.598H325.672V91.3976H321.672ZM323.672 137.598H403.672V133.598H323.672V137.598ZM401.672 135.598V150.598H405.672V135.598H401.672ZM403.672 148.598H323.672V152.598H403.672V148.598ZM321.672 150.598V198.598H325.672V150.598H321.672ZM323.672 200.598H413.472V196.598H323.672V200.598ZM411.472 198.598V213.798H415.472V198.598H411.472ZM413.472 211.798H305.072V215.798H413.472V211.798ZM438.275 213.798H436.275V215.798H438.275V213.798ZM438.275 76.1976V74.1976H436.275V76.1976H438.275ZM456.875 76.1976H458.875V74.1976H456.875V76.1976ZM456.875 198.598H454.875V200.598H456.875V198.598ZM526.475 198.598H528.475V196.598H526.475V198.598ZM526.475 213.798V215.798H528.475V213.798H526.475ZM440.275 213.798V76.1976H436.275V213.798H440.275ZM438.275 78.1976H456.875V74.1976H438.275V78.1976ZM454.875 76.1976V198.598H458.875V76.1976H454.875ZM456.875 200.598H526.475V196.598H456.875V200.598ZM524.475 198.598V213.798H528.475V198.598H524.475ZM526.475 211.798H438.275V215.798H526.475V211.798Z" fill="url(#paint0_linear)"/>
</g>
<path d="M135.17 172L133.399 171.07L133.395 171.079L133.39 171.088L135.17 172ZM111.77 196.6L112.738 198.35L112.746 198.346L112.755 198.341L111.77 196.6ZM25.1702 205H23.1702V207H25.1702V205ZM25.1702 67.4V65.4H23.1702V67.4H25.1702ZM124.57 85L123.211 86.4673L123.219 86.4749L124.57 85ZM110.77 95.8L109.387 97.2448L109.392 97.2497L109.398 97.2546L110.77 95.8ZM43.7702 82.4V80.4H41.7702V82.4H43.7702ZM43.7702 190H41.7702V192H43.7702V190ZM100.97 183.4L99.9812 181.662L99.9747 181.665L99.9682 181.669L100.97 183.4ZM118.77 164.4L120.559 165.294L120.565 165.283L118.77 164.4ZM141.57 134.8C141.57 148.666 138.825 160.736 133.399 171.07L136.941 172.93C142.716 161.93 145.57 149.201 145.57 134.8H141.57ZM133.39 171.088C128.096 181.417 120.568 189.324 110.785 194.859L112.755 198.341C123.239 192.409 131.311 183.916 136.95 172.912L133.39 171.088ZM110.803 194.85C101.008 200.262 89.617 203 76.5702 203V207C90.1901 207 102.266 204.138 112.738 198.35L110.803 194.85ZM76.5702 203H25.1702V207H76.5702V203ZM27.1702 205V67.4H23.1702V205H27.1702ZM25.1702 69.4H70.7702V65.4H25.1702V69.4ZM70.7702 69.4C93.6427 69.4 111.026 75.1799 123.211 86.4672L125.929 83.5328C112.781 71.3534 94.2978 65.4 70.7702 65.4V69.4ZM123.219 86.4749C135.371 97.603 141.57 113.606 141.57 134.8H145.57C145.57 112.794 139.103 95.597 125.921 83.525L123.219 86.4749ZM126.97 134.8C126.97 117.362 122.124 103.764 112.143 94.3454L109.398 97.2546C118.35 105.702 122.97 118.104 122.97 134.8H126.97ZM112.153 94.3552C102.33 84.9528 88.2954 80.4 70.3702 80.4V84.4C87.6451 84.4 100.544 88.7805 109.387 97.2448L112.153 94.3552ZM70.3702 80.4H43.7702V84.4H70.3702V80.4ZM41.7702 82.4V190H45.7702V82.4H41.7702ZM43.7702 192H74.5702V188H43.7702V192ZM74.5702 192C84.8725 192 94.0275 189.73 101.972 185.131L99.9682 181.669C92.713 185.87 84.268 188 74.5702 188V192ZM101.959 185.138C110.051 180.535 116.256 173.901 120.559 165.294L116.981 163.506C113.018 171.432 107.356 177.465 99.9812 181.662L101.959 185.138ZM120.565 165.283C124.859 156.556 126.97 146.376 126.97 134.8H122.97C122.97 145.891 120.948 155.444 116.976 163.517L120.565 165.283ZM194.906 200.8L194.023 202.595L194.023 202.595L194.906 200.8ZM175.306 183L173.573 183.999L173.583 184.016L173.594 184.033L175.306 183ZM168.506 67.4V65.4H166.506V67.4H168.506ZM187.106 67.4H189.106V65.4H187.106V67.4ZM196.706 182L198.135 180.6L198.135 180.6L196.706 182ZM253.106 181.8L254.506 183.228L254.507 183.228L253.106 181.8ZM263.506 67.4V65.4H261.506V67.4H263.506ZM282.106 67.4H284.106V65.4H282.106V67.4ZM274.906 182.2L273.184 181.183L273.179 181.192L274.906 182.2ZM254.906 200.6L254.023 198.806L254.012 198.811L254.906 200.6ZM224.506 205C213.415 205 203.863 202.978 195.789 199.005L194.023 202.595C202.75 206.889 212.93 209 224.506 209V205ZM195.789 199.005C187.72 195.035 181.48 189.36 177.019 181.967L173.594 184.033C178.466 192.107 185.293 198.299 194.023 202.595L195.789 199.005ZM177.039 182.001C172.711 174.491 170.506 165.516 170.506 155H166.506C166.506 166.084 168.834 175.775 173.573 183.999L177.039 182.001ZM170.506 155V67.4H166.506V155H170.506ZM168.506 69.4H187.106V65.4H168.506V69.4ZM185.106 67.4V153.4H189.106V67.4H185.106ZM185.106 153.4C185.106 166.259 188.393 176.372 195.277 183.4L198.135 180.6C192.219 174.562 189.106 165.608 189.106 153.4H185.106ZM195.277 183.4C202.161 190.426 211.943 193.8 224.306 193.8V189.8C212.669 189.8 204.052 186.641 198.135 180.6L195.277 183.4ZM224.306 193.8C237.065 193.8 247.23 190.362 254.506 183.228L251.706 180.372C245.383 186.571 236.347 189.8 224.306 189.8V193.8ZM254.507 183.228C261.938 175.94 265.506 165.486 265.506 152.2H261.506C261.506 164.781 258.141 174.06 251.706 180.372L254.507 183.228ZM265.506 152.2V67.4H261.506V152.2H265.506ZM263.506 69.4H282.106V65.4H263.506V69.4ZM280.106 67.4V153.2H284.106V67.4H280.106ZM280.106 153.2C280.106 164.109 277.771 173.411 273.184 181.183L276.629 183.217C281.642 174.722 284.106 164.691 284.106 153.2H280.106ZM273.179 181.192C268.719 188.838 262.353 194.705 254.023 198.806L255.79 202.394C264.793 197.962 271.76 191.562 276.634 183.208L273.179 181.192ZM254.012 198.811C245.813 202.911 235.999 205 224.506 205V209C236.48 209 246.933 206.823 255.801 202.389L254.012 198.811ZM313.842 205H311.842V207H313.842V205ZM313.842 67.4V65.4H311.842V67.4H313.842ZM418.242 67.4H420.242V65.4H418.242V67.4ZM418.242 82.6V84.6H420.242V82.6H418.242ZM332.442 82.6V80.6H330.442V82.6H332.442ZM332.442 126.8H330.442V128.8H332.442V126.8ZM412.442 126.8H414.442V124.8H412.442V126.8ZM412.442 141.8V143.8H414.442V141.8H412.442ZM332.442 141.8V139.8H330.442V141.8H332.442ZM332.442 189.8H330.442V191.8H332.442V189.8ZM422.242 189.8H424.242V187.8H422.242V189.8ZM422.242 205V207H424.242V205H422.242ZM315.842 205V67.4H311.842V205H315.842ZM313.842 69.4H418.242V65.4H313.842V69.4ZM416.242 67.4V82.6H420.242V67.4H416.242ZM418.242 80.6H332.442V84.6H418.242V80.6ZM330.442 82.6V126.8H334.442V82.6H330.442ZM332.442 128.8H412.442V124.8H332.442V128.8ZM410.442 126.8V141.8H414.442V126.8H410.442ZM412.442 139.8H332.442V143.8H412.442V139.8ZM330.442 141.8V189.8H334.442V141.8H330.442ZM332.442 191.8H422.242V187.8H332.442V191.8ZM420.242 189.8V205H424.242V189.8H420.242ZM422.242 203H313.842V207H422.242V203ZM447.045 205H445.045V207H447.045V205ZM447.045 67.4V65.4H445.045V67.4H447.045ZM465.645 67.4H467.645V65.4H465.645V67.4ZM465.645 189.8H463.645V191.8H465.645V189.8ZM535.245 189.8H537.245V187.8H535.245V189.8ZM535.245 205V207H537.245V205H535.245ZM449.045 205V67.4H445.045V205H449.045ZM447.045 69.4H465.645V65.4H447.045V69.4ZM463.645 67.4V189.8H467.645V67.4H463.645ZM465.645 191.8H535.245V187.8H465.645V191.8ZM533.245 189.8V205H537.245V189.8H533.245ZM535.245 203H447.045V207H535.245V203Z" fill="url(#paint1_linear)"/>
<defs>
<filter id="filter0_f" x="12.4" y="72.1976" width="518.075" height="147.6" filterUnits="userSpaceOnUse" color-interpolation-filters="sRGB">
<feFlood flood-opacity="0" result="BackgroundImageFix"/>
<feBlend mode="normal" in="SourceGraphic" in2="BackgroundImageFix" result="shape"/>
<feGaussianBlur stdDeviation="1" result="effect1_foregroundBlur"/>
</filter>
<linearGradient id="paint0_linear" x1="-93.5187" y1="153.898" x2="577.615" y2="153.898" gradientUnits="userSpaceOnUse">
<stop stop-color="#688CC1"/>
<stop offset="1" stop-color="#84DCC6"/>
</linearGradient>
<linearGradient id="paint1_linear" x1="572.456" y1="145.101" x2="-4.21102" y2="145.101" gradientUnits="userSpaceOnUse">
<stop stop-color="#0D131C"/>
<stop offset="1" stop-color="#B7BABF"/>
</linearGradient>
</defs>
</svg>
