<svg width="542" height="300" viewBox="0 0 542 300" fill="none" xmlns="http://www.w3.org/2000/svg">
<g filter="url(#filter0_f)">
<path d="M126.4 180.798L123.744 179.403L123.737 179.416L123.73 179.429L126.4 180.798ZM103 205.398L104.451 208.023L104.464 208.016L104.477 208.009L103 205.398ZM16.4 213.798H13.4V216.798H16.4V213.798ZM16.4 76.1976V73.1976H13.4V76.1976H16.4ZM115.8 93.7976L113.761 95.9985L113.768 96.0043L113.774 96.0101L115.8 93.7976ZM102 104.598L99.9256 106.765L99.9333 106.772L99.941 106.78L102 104.598ZM35 91.1976V88.1976H32V91.1976H35ZM35 198.798H32V201.798H35V198.798ZM92.2 192.198L90.7164 189.59L90.7066 189.596L90.6969 189.601L92.2 192.198ZM110 173.198L112.683 174.539L112.688 174.531L112.692 174.522L110 173.198ZM131.8 143.598C131.8 157.329 129.082 169.235 123.744 179.403L129.056 182.192C134.918 171.027 137.8 158.133 137.8 143.598H131.8ZM123.73 179.429C118.523 189.59 111.13 197.351 101.523 202.787L104.477 208.009C115.137 201.978 123.344 193.338 129.07 182.166L123.73 179.429ZM101.549 202.772C91.9232 208.091 80.7035 210.798 67.8 210.798V216.798C81.5632 216.798 93.8101 213.904 104.451 208.023L101.549 202.772ZM67.8 210.798H16.4V216.798H67.8V210.798ZM19.4 213.798V76.1976H13.4V213.798H19.4ZM16.4 79.1976H62V73.1976H16.4V79.1976ZM62 79.1976C84.7086 79.1976 101.817 84.9342 113.761 95.9985L117.839 91.5968C104.45 79.1945 85.6914 73.1976 62 73.1976V79.1976ZM113.774 96.0101C125.668 106.902 131.8 122.607 131.8 143.598H137.8C137.8 121.388 131.266 103.893 117.826 91.5852L113.774 96.0101ZM119.2 143.598C119.2 125.975 114.298 112.078 104.059 102.416L99.941 106.78C108.636 114.984 113.2 127.087 113.2 143.598H119.2ZM104.074 102.43C94.006 92.7935 79.6878 88.1976 61.6 88.1976V94.1976C78.7122 94.1976 91.3274 98.5351 99.9256 106.765L104.074 102.43ZM61.6 88.1976H35V94.1976H61.6V88.1976ZM32 91.1976V198.798H38V91.1976H32ZM35 201.798H65.8V195.798H35V201.798ZM65.8 201.798C76.2533 201.798 85.5859 199.493 93.7031 194.794L90.6969 189.601C83.6141 193.702 75.3467 195.798 65.8 195.798V201.798ZM93.6836 194.805C101.954 190.099 108.295 183.316 112.683 174.539L107.317 171.856C103.438 179.613 97.9125 185.496 90.7164 189.59L93.6836 194.805ZM112.692 174.522C117.066 165.632 119.2 155.295 119.2 143.598H113.2C113.2 154.567 111.201 163.963 107.308 171.873L112.692 174.522ZM186.136 209.598L184.811 212.289L184.811 212.289L186.136 209.598ZM166.536 191.798L163.937 193.296L163.952 193.322L163.967 193.348L166.536 191.798ZM159.736 76.1976V73.1976H156.736V76.1976H159.736ZM178.336 76.1976H181.336V73.1976H178.336V76.1976ZM187.936 190.798L190.079 188.698L190.079 188.698L187.936 190.798ZM244.336 190.598L246.436 192.74L246.437 192.739L244.336 190.598ZM254.736 76.1976V73.1976H251.736V76.1976H254.736ZM273.336 76.1976H276.336V73.1976H273.336V76.1976ZM266.136 190.998L263.552 189.473L263.548 189.479L263.545 189.486L266.136 190.998ZM246.136 209.398L244.811 206.706L244.803 206.71L244.794 206.714L246.136 209.398ZM215.736 212.798C204.767 212.798 195.371 210.798 187.46 206.906L184.811 212.289C193.701 216.664 204.039 218.798 215.736 218.798V212.798ZM187.46 206.906C179.556 203.016 173.463 197.471 169.105 190.248L163.967 193.348C168.942 201.591 175.916 207.912 184.811 212.289L187.46 206.906ZM169.135 190.3C164.91 182.968 162.736 174.172 162.736 163.798H156.736C156.736 175.023 159.095 184.894 163.937 193.296L169.135 190.3ZM162.736 163.798V76.1976H156.736V163.798H162.736ZM159.736 79.1976H178.336V73.1976H159.736V79.1976ZM175.336 76.1976V162.198H181.336V76.1976H175.336ZM175.336 162.198C175.336 175.219 178.666 185.622 185.793 192.897L190.079 188.698C184.406 182.907 181.336 174.243 181.336 162.198H175.336ZM185.793 192.897C192.918 200.17 202.992 203.598 215.536 203.598V197.598C204.08 197.598 195.754 194.492 190.079 188.698L185.793 192.897ZM215.536 203.598C228.475 203.598 238.921 200.108 246.436 192.74L242.236 188.455C236.151 194.421 227.397 197.598 215.536 197.598V203.598ZM246.437 192.739C254.117 185.207 257.736 174.46 257.736 160.998H251.736C251.736 173.402 248.422 182.388 242.235 188.456L246.437 192.739ZM257.736 160.998V76.1976H251.736V160.998H257.736ZM254.736 79.1976H273.336V73.1976H254.736V79.1976ZM270.336 76.1976V161.998H276.336V76.1976H270.336ZM270.336 161.998C270.336 172.762 268.033 181.881 263.552 189.473L268.72 192.522C273.839 183.848 276.336 173.634 276.336 161.998H270.336ZM263.545 189.486C259.188 196.954 252.973 202.688 244.811 206.706L247.461 212.089C256.632 207.574 263.75 201.041 268.727 192.509L263.545 189.486ZM244.794 206.714C236.762 210.73 227.109 212.798 215.736 212.798V218.798C227.83 218.798 238.443 216.598 247.478 212.081L244.794 206.714ZM305.072 213.798H302.072V216.798H305.072V213.798ZM305.072 76.1976V73.1976H302.072V76.1976H305.072ZM409.472 76.1976H412.472V73.1976H409.472V76.1976ZM409.472 91.3976V94.3976H412.472V91.3976H409.472ZM323.672 91.3976V88.3976H320.672V91.3976H323.672ZM323.672 135.598H320.672V138.598H323.672V135.598ZM403.672 135.598H406.672V132.598H403.672V135.598ZM403.672 150.598V153.598H406.672V150.598H403.672ZM323.672 150.598V147.598H320.672V150.598H323.672ZM323.672 198.598H320.672V201.598H323.672V198.598ZM413.472 198.598H416.472V195.598H413.472V198.598ZM413.472 213.798V216.798H416.472V213.798H413.472ZM308.072 213.798V76.1976H302.072V213.798H308.072ZM305.072 79.1976H409.472V73.1976H305.072V79.1976ZM406.472 76.1976V91.3976H412.472V76.1976H406.472ZM409.472 88.3976H323.672V94.3976H409.472V88.3976ZM320.672 91.3976V135.598H326.672V91.3976H320.672ZM323.672 138.598H403.672V132.598H323.672V138.598ZM400.672 135.598V150.598H406.672V135.598H400.672ZM403.672 147.598H323.672V153.598H403.672V147.598ZM320.672 150.598V198.598H326.672V150.598H320.672ZM323.672 201.598H413.472V195.598H323.672V201.598ZM410.472 198.598V213.798H416.472V198.598H410.472ZM413.472 210.798H305.072V216.798H413.472V210.798ZM438.275 213.798H435.275V216.798H438.275V213.798ZM438.275 76.1976V73.1976H435.275V76.1976H438.275ZM456.875 76.1976H459.875V73.1976H456.875V76.1976ZM456.875 198.598H453.875V201.598H456.875V198.598ZM526.475 198.598H529.475V195.598H526.475V198.598ZM526.475 213.798V216.798H529.475V213.798H526.475ZM441.275 213.798V76.1976H435.275V213.798H441.275ZM438.275 79.1976H456.875V73.1976H438.275V79.1976ZM453.875 76.1976V198.598H459.875V76.1976H453.875ZM456.875 201.598H526.475V195.598H456.875V201.598ZM523.475 198.598V213.798H529.475V198.598H523.475ZM526.475 210.798H438.275V216.798H526.475V210.798Z" fill="url(#paint0_linear)"/>
</g>
<path d="M135.17 172L132.514 170.605L132.507 170.619L132.5 170.632L135.17 172ZM111.77 196.6L113.221 199.226L113.234 199.218L113.248 199.211L111.77 196.6ZM25.1702 205H22.1702V208H25.1702V205ZM25.1702 67.4V64.4H22.1702V67.4H25.1702ZM124.57 85L122.532 87.2008L122.538 87.2067L122.544 87.2124L124.57 85ZM110.77 95.8L108.696 97.9673L108.704 97.9746L108.711 97.9819L110.77 95.8ZM43.7702 82.4V79.4H40.7702V82.4H43.7702ZM43.7702 190H40.7702V193H43.7702V190ZM100.97 183.4L99.4867 180.793L99.4769 180.798L99.4671 180.804L100.97 183.4ZM118.77 164.4L121.454 165.742L121.458 165.733L121.462 165.725L118.77 164.4ZM140.57 134.8C140.57 148.532 137.852 160.438 132.514 170.605L137.826 173.395C143.688 162.229 146.57 149.335 146.57 134.8H140.57ZM132.5 170.632C127.293 180.793 119.9 188.553 110.293 193.989L113.248 199.211C123.907 193.18 132.114 184.541 137.84 173.368L132.5 170.632ZM110.319 193.974C100.693 199.294 89.4737 202 76.5702 202V208C90.3334 208 102.58 205.106 113.221 199.226L110.319 193.974ZM76.5702 202H25.1702V208H76.5702V202ZM28.1702 205V67.4H22.1702V205H28.1702ZM25.1702 70.4H70.7702V64.4H25.1702V70.4ZM70.7702 70.4C93.4789 70.4 110.587 76.1365 122.532 87.2008L126.609 82.7991C113.22 70.3968 94.4616 64.4 70.7702 64.4V70.4ZM122.544 87.2124C134.438 98.1045 140.57 113.81 140.57 134.8H146.57C146.57 112.59 140.036 95.0955 126.596 82.7876L122.544 87.2124ZM127.97 134.8C127.97 117.177 123.068 103.28 112.829 93.6181L108.711 97.9819C117.406 106.187 121.97 118.29 121.97 134.8H127.97ZM112.845 93.6327C102.776 83.9959 88.458 79.4 70.3702 79.4V85.4C87.4825 85.4 100.098 89.7375 108.696 97.9673L112.845 93.6327ZM70.3702 79.4H43.7702V85.4H70.3702V79.4ZM40.7702 82.4V190H46.7702V82.4H40.7702ZM43.7702 193H74.5702V187H43.7702V193ZM74.5702 193C85.0236 193 94.3561 190.696 102.473 185.996L99.4671 180.804C92.3843 184.904 84.1169 187 74.5702 187V193ZM102.454 186.007C110.724 181.302 117.065 174.518 121.454 165.742L116.087 163.058C112.208 170.815 106.683 176.698 99.4867 180.793L102.454 186.007ZM121.462 165.725C125.836 156.835 127.97 146.497 127.97 134.8H121.97C121.97 145.769 119.971 155.165 116.078 163.075L121.462 165.725ZM194.906 200.8L193.582 203.492L193.582 203.492L194.906 200.8ZM175.306 183L172.707 184.498L172.722 184.524L172.738 184.55L175.306 183ZM168.506 67.4V64.4H165.506V67.4H168.506ZM187.106 67.4H190.106V64.4H187.106V67.4ZM196.706 182L198.849 179.901L198.849 179.901L196.706 182ZM253.106 181.8L255.206 183.942L255.207 183.942L253.106 181.8ZM263.506 67.4V64.4H260.506V67.4H263.506ZM282.106 67.4H285.106V64.4H282.106V67.4ZM274.906 182.2L272.323 180.675L272.319 180.682L272.315 180.688L274.906 182.2ZM254.906 200.6L253.581 197.908L253.573 197.913L253.565 197.917L254.906 200.6ZM224.506 204C213.537 204 204.141 202.001 196.231 198.108L193.582 203.492C202.472 207.866 212.809 210 224.506 210V204ZM196.231 198.108C188.326 194.219 182.233 188.673 177.875 181.45L172.738 184.55C177.712 192.794 184.686 199.115 193.582 203.492L196.231 198.108ZM177.905 181.502C173.68 174.17 171.506 165.374 171.506 155H165.506C165.506 166.226 167.865 176.096 172.707 184.498L177.905 181.502ZM171.506 155V67.4H165.506V155H171.506ZM168.506 70.4H187.106V64.4H168.506V70.4ZM184.106 67.4V153.4H190.106V67.4H184.106ZM184.106 153.4C184.106 166.422 187.436 176.824 194.563 184.099L198.849 179.901C193.176 174.109 190.106 165.445 190.106 153.4H184.106ZM194.563 184.099C201.688 191.372 211.762 194.8 224.306 194.8V188.8C212.85 188.8 204.525 185.694 198.849 179.901L194.563 184.099ZM224.306 194.8C237.245 194.8 247.691 191.31 255.206 183.942L251.006 179.658C244.921 185.623 236.167 188.8 224.306 188.8V194.8ZM255.207 183.942C262.887 176.409 266.506 165.662 266.506 152.2H260.506C260.506 164.605 257.192 173.591 251.006 179.658L255.207 183.942ZM266.506 152.2V67.4H260.506V152.2H266.506ZM263.506 70.4H282.106V64.4H263.506V70.4ZM279.106 67.4V153.2H285.106V67.4H279.106ZM279.106 153.2C279.106 163.964 276.803 173.083 272.323 180.675L277.49 183.725C282.609 175.05 285.106 164.836 285.106 153.2H279.106ZM272.315 180.688C267.958 188.157 261.743 193.89 253.581 197.908L256.231 203.292C265.403 198.776 272.521 192.243 277.498 183.712L272.315 180.688ZM253.565 197.917C245.533 201.933 235.879 204 224.506 204V210C236.6 210 247.213 207.801 256.248 203.283L253.565 197.917ZM313.842 205H310.842V208H313.842V205ZM313.842 67.4V64.4H310.842V67.4H313.842ZM418.242 67.4H421.242V64.4H418.242V67.4ZM418.242 82.6V85.6H421.242V82.6H418.242ZM332.442 82.6V79.6H329.442V82.6H332.442ZM332.442 126.8H329.442V129.8H332.442V126.8ZM412.442 126.8H415.442V123.8H412.442V126.8ZM412.442 141.8V144.8H415.442V141.8H412.442ZM332.442 141.8V138.8H329.442V141.8H332.442ZM332.442 189.8H329.442V192.8H332.442V189.8ZM422.242 189.8H425.242V186.8H422.242V189.8ZM422.242 205V208H425.242V205H422.242ZM316.842 205V67.4H310.842V205H316.842ZM313.842 70.4H418.242V64.4H313.842V70.4ZM415.242 67.4V82.6H421.242V67.4H415.242ZM418.242 79.6H332.442V85.6H418.242V79.6ZM329.442 82.6V126.8H335.442V82.6H329.442ZM332.442 129.8H412.442V123.8H332.442V129.8ZM409.442 126.8V141.8H415.442V126.8H409.442ZM412.442 138.8H332.442V144.8H412.442V138.8ZM329.442 141.8V189.8H335.442V141.8H329.442ZM332.442 192.8H422.242V186.8H332.442V192.8ZM419.242 189.8V205H425.242V189.8H419.242ZM422.242 202H313.842V208H422.242V202ZM447.045 205H444.045V208H447.045V205ZM447.045 67.4V64.4H444.045V67.4H447.045ZM465.645 67.4H468.645V64.4H465.645V67.4ZM465.645 189.8H462.645V192.8H465.645V189.8ZM535.245 189.8H538.245V186.8H535.245V189.8ZM535.245 205V208H538.245V205H535.245ZM450.045 205V67.4H444.045V205H450.045ZM447.045 70.4H465.645V64.4H447.045V70.4ZM462.645 67.4V189.8H468.645V67.4H462.645ZM465.645 192.8H535.245V186.8H465.645V192.8ZM532.245 189.8V205H538.245V189.8H532.245ZM535.245 202H447.045V208H535.245V202Z" fill="url(#paint1_linear)"/>
<defs>
<filter id="filter0_f" x="9.39999" y="69.1976" width="524.075" height="153.6" filterUnits="userSpaceOnUse" color-interpolation-filters="sRGB">
<feFlood flood-opacity="0" result="BackgroundImageFix"/>
<feBlend mode="normal" in="SourceGraphic" in2="BackgroundImageFix" result="shape"/>
<feGaussianBlur stdDeviation="2" result="effect1_foregroundBlur"/>
</filter>
<linearGradient id="paint0_linear" x1="-93.5187" y1="153.898" x2="577.615" y2="153.898" gradientUnits="userSpaceOnUse">
<stop stop-color="#688CC1"/>
<stop offset="1" stop-color="#84DCC6"/>
</linearGradient>
<linearGradient id="paint1_linear" x1="572.456" y1="145.101" x2="-4.21102" y2="145.101" gradientUnits="userSpaceOnUse">
<stop stop-color="#0D131C"/>
<stop offset="1" stop-color="#B7BABF"/>
</linearGradient>
</defs>
</svg>
